<svg xmlns="http://www.w3.org/2000/svg" version="1.1" xmlns:xlink="http://www.w3.org/1999/xlink" xmlns:svgjs="http://svgjs.com/svgjs" width="1920" height="1080" preserveAspectRatio="none" viewBox="0 0 1920 1080"><g mask="url(&quot;#SvgjsMask1000&quot;)" fill="none"><rect width="1920" height="1080" x="0" y="0" fill="#0e2a47"></rect><g mask="url(&quot;#SvgjsMask1001&quot;)"><path d="M-12 540L12 540" stroke="#3a7cc3" stroke-width="4"></path><path d="M6 540 a6 6 0 1 0 12 0 a6 6 0 1 0 -12 0z" fill="#3a7cc3"></path><path d="M372 540L396 516L420 516L444 516L468 516L492 516L516 516L540 516L564 516L588 516L612 516L636 516L660 516L684 516M300 540L324 516L348 516L372 516L396 492L420 492M420 540L444 564L468 564L492 564M660 540L684 564L708 564L732 588L756 588M612 540L636 564L660 564M180 516L204 540M36 540L60 516L84 516M348 540L372 564L396 564L420 564L444 588M-12 564L12 564L36 540L60 540L84 540L108 516L132 516L156 516L180 516L204 516L228 516L252 540L276 540L300 540L324 540L348 540L372 540L396 540L420 540L444 540L468 540L492 540L516 540L540 540L564 540L588 540L612 540L636 540L660 540L684 540L708 516L732 516L756 516" stroke="#3a7cc3" stroke-width="4"></path><path d="M750 516 a6 6 0 1 0 12 0 a6 6 0 1 0 -12 0zM678 516 a6 6 0 1 0 12 0 a6 6 0 1 0 -12 0zM414 492 a6 6 0 1 0 12 0 a6 6 0 1 0 -12 0zM486 564 a6 6 0 1 0 12 0 a6 6 0 1 0 -12 0zM750 588 a6 6 0 1 0 12 0 a6 6 0 1 0 -12 0zM654 564 a6 6 0 1 0 12 0 a6 6 0 1 0 -12 0zM198 540 a6 6 0 1 0 12 0 a6 6 0 1 0 -12 0zM78 516 a6 6 0 1 0 12 0 a6 6 0 1 0 -12 0zM438 588 a6 6 0 1 0 12 0 a6 6 0 1 0 -12 0z" fill="#3a7cc3"></path><path d="M-12 516L12 516" stroke="#dd1133" stroke-width="4"></path><path d="M6 516 a6 6 0 1 0 12 0 a6 6 0 1 0 -12 0z" fill="#dd1133"></path><path d="M132 612L156 588L180 588M348 636L372 660M180 636L204 612M156 612L180 612M36 612L60 588L84 588M468 660L492 636M300 636L324 612L348 612L372 612M732 660L756 660L780 660L804 660L828 660L852 636M-12 588L12 588L36 612L60 612L84 612L108 612L132 612L156 612L180 636L204 636L228 636L252 636L276 636L300 636L324 636L348 636L372 636L396 636L420 660L444 660L468 660L492 660L516 660L540 660L564 660L588 660L612 660L636 660L660 660L684 660L708 660L732 660L756 684L780 684" stroke="rgba(219, 244, 5, 1)" stroke-width="4"></path><path d="M774 684 a6 6 0 1 0 12 0 a6 6 0 1 0 -12 0zM174 588 a6 6 0 1 0 12 0 a6 6 0 1 0 -12 0zM366 660 a6 6 0 1 0 12 0 a6 6 0 1 0 -12 0zM198 612 a6 6 0 1 0 12 0 a6 6 0 1 0 -12 0zM174 612 a6 6 0 1 0 12 0 a6 6 0 1 0 -12 0zM78 588 a6 6 0 1 0 12 0 a6 6 0 1 0 -12 0zM486 636 a6 6 0 1 0 12 0 a6 6 0 1 0 -12 0zM366 612 a6 6 0 1 0 12 0 a6 6 0 1 0 -12 0zM846 636 a6 6 0 1 0 12 0 a6 6 0 1 0 -12 0z" fill="rgba(219, 244, 5, 1)"></path><path d="M732 492L756 468L780 468L804 468L828 468L852 468L876 468L900 492L924 492L948 492L972 492L996 492L1020 492L1044 492L1068 492L1092 492L1116 492M180 492L204 492M1044 516L1068 540M564 468L588 468L612 468L636 468L660 468L684 468L708 468L732 468L756 444L780 444L804 444L828 420L852 420L876 420L900 420L924 420M372 444L396 444M516 468L540 492M900 516L924 540L948 540L972 540L996 540M492 468L516 492M1020 516L1044 540L1068 564L1092 564L1116 564L1140 564M468 492L492 492M780 516L804 540L828 540L852 540L876 540M-12 492L12 492L36 492L60 492L84 492L108 492L132 492L156 492L180 492L204 468L228 468L252 444L276 444L300 444L324 444L348 444L372 444L396 468L420 468L444 492L468 492L492 468L516 468L540 468L564 468L588 492L612 492L636 492L660 492L684 492L708 492L732 492L756 492L780 516L804 516L828 516L852 516L876 516L900 516L924 516L948 516L972 516L996 516L1020 516L1044 516L1068 516L1092 516" stroke="rgba(219, 244, 5, 1)" stroke-width="4"></path><path d="M1086 516 a6 6 0 1 0 12 0 a6 6 0 1 0 -12 0zM1110 492 a6 6 0 1 0 12 0 a6 6 0 1 0 -12 0zM198 492 a6 6 0 1 0 12 0 a6 6 0 1 0 -12 0zM1062 540 a6 6 0 1 0 12 0 a6 6 0 1 0 -12 0zM918 420 a6 6 0 1 0 12 0 a6 6 0 1 0 -12 0zM390 444 a6 6 0 1 0 12 0 a6 6 0 1 0 -12 0zM534 492 a6 6 0 1 0 12 0 a6 6 0 1 0 -12 0zM990 540 a6 6 0 1 0 12 0 a6 6 0 1 0 -12 0zM510 492 a6 6 0 1 0 12 0 a6 6 0 1 0 -12 0zM1134 564 a6 6 0 1 0 12 0 a6 6 0 1 0 -12 0zM486 492 a6 6 0 1 0 12 0 a6 6 0 1 0 -12 0zM870 540 a6 6 0 1 0 12 0 a6 6 0 1 0 -12 0z" fill="rgba(219, 244, 5, 1)"></path><path d="M-12 612L12 612" stroke="#3a7cc3" stroke-width="4"></path><path d="M6 612 a6 6 0 1 0 12 0 a6 6 0 1 0 -12 0z" fill="#3a7cc3"></path><path d="M36 468L60 444L84 444L108 444L132 444L156 444M420 420L444 444M12 468L36 444L60 420L84 420L108 420M-12 468L12 468L36 468L60 468L84 468L108 468L132 468L156 468L180 468L204 444L228 444L252 420L276 420L300 420L324 420L348 420L372 420L396 420L420 420L444 420L468 420" stroke="#dd1133" stroke-width="4"></path><path d="M462 420 a6 6 0 1 0 12 0 a6 6 0 1 0 -12 0zM150 444 a6 6 0 1 0 12 0 a6 6 0 1 0 -12 0zM438 444 a6 6 0 1 0 12 0 a6 6 0 1 0 -12 0zM102 420 a6 6 0 1 0 12 0 a6 6 0 1 0 -12 0z" fill="#dd1133"></path><path d="M276 684L300 660L324 660M228 660L252 660L276 660M588 708L612 708L636 708L660 708L684 708M804 708L828 684M708 684L732 708M540 684L564 684L588 684M852 684L876 708L900 708L924 708L948 708L972 708L996 708L1020 708L1044 708L1068 684L1092 684L1116 684L1140 684L1164 684L1188 684L1212 684M828 708L852 708M-12 636L12 636L36 636L60 636L84 636L108 636L132 636L156 636L180 660L204 660L228 660L252 684L276 684L300 684L324 684L348 684L372 684L396 684L420 684L444 684L468 684L492 684L516 684L540 684L564 708L588 708L612 684L636 684L660 684L684 684L708 684L732 684L756 708L780 708L804 708L828 708L852 684L876 684L900 660L924 660" stroke="#dd1133" stroke-width="4"></path><path d="M918 660 a6 6 0 1 0 12 0 a6 6 0 1 0 -12 0zM318 660 a6 6 0 1 0 12 0 a6 6 0 1 0 -12 0zM270 660 a6 6 0 1 0 12 0 a6 6 0 1 0 -12 0zM678 708 a6 6 0 1 0 12 0 a6 6 0 1 0 -12 0zM822 684 a6 6 0 1 0 12 0 a6 6 0 1 0 -12 0zM726 708 a6 6 0 1 0 12 0 a6 6 0 1 0 -12 0zM582 684 a6 6 0 1 0 12 0 a6 6 0 1 0 -12 0zM1206 684 a6 6 0 1 0 12 0 a6 6 0 1 0 -12 0zM846 708 a6 6 0 1 0 12 0 a6 6 0 1 0 -12 0z" fill="#dd1133"></path><path d="M1188 780L1212 756L1236 756L1260 756L1284 756L1308 732L1332 732L1356 732L1380 732L1404 756L1428 756M1092 780L1116 756L1140 756L1164 756L1188 756L1212 732L1236 732L1260 732L1284 732L1308 708L1332 708L1356 708L1380 708L1404 708L1428 708M108 660L132 684L156 684M1020 732L1044 732L1068 732L1092 732L1116 732L1140 732L1164 732L1188 732L1212 708L1236 708L1260 708L1284 708L1308 684M84 660L108 684M36 684L60 660M1260 780L1284 804L1308 804L1332 804L1356 804L1380 804M60 684L84 684M1068 756L1092 756M1236 780L1260 804M12 660L36 660M-12 660L12 660L36 684L60 684L84 660L108 660L132 660L156 660L180 684L204 684L228 684L252 708L276 708L300 708L324 708L348 708L372 708L396 708L420 708L444 708L468 708L492 708L516 708L540 708L564 732L588 732L612 732L636 732L660 732L684 732L708 732L732 732L756 732L780 732L804 732L828 732L852 732L876 732L900 732L924 732L948 732L972 732L996 732L1020 732L1044 756L1068 756L1092 780L1116 780L1140 780L1164 780L1188 780L1212 780L1236 780L1260 780L1284 780L1308 780" stroke="rgba(35, 225, 21, 1)" stroke-width="4"></path><path d="M1302 780 a6 6 0 1 0 12 0 a6 6 0 1 0 -12 0zM1422 756 a6 6 0 1 0 12 0 a6 6 0 1 0 -12 0zM1422 708 a6 6 0 1 0 12 0 a6 6 0 1 0 -12 0zM150 684 a6 6 0 1 0 12 0 a6 6 0 1 0 -12 0zM1302 684 a6 6 0 1 0 12 0 a6 6 0 1 0 -12 0zM102 684 a6 6 0 1 0 12 0 a6 6 0 1 0 -12 0zM54 660 a6 6 0 1 0 12 0 a6 6 0 1 0 -12 0zM1374 804 a6 6 0 1 0 12 0 a6 6 0 1 0 -12 0zM78 684 a6 6 0 1 0 12 0 a6 6 0 1 0 -12 0zM1086 756 a6 6 0 1 0 12 0 a6 6 0 1 0 -12 0zM1254 804 a6 6 0 1 0 12 0 a6 6 0 1 0 -12 0zM30 660 a6 6 0 1 0 12 0 a6 6 0 1 0 -12 0z" fill="rgba(35, 225, 21, 1)"></path><path d="M516 732L540 756M372 732L396 756L420 756L444 756M468 732L492 756M300 732L324 756L348 756L372 756M-12 684L12 684L36 708L60 708L84 708L108 708L132 708L156 708L180 708L204 708L228 708L252 732L276 732L300 732L324 732L348 732L372 732L396 732L420 732L444 732L468 732L492 732L516 732L540 732L564 756L588 756L612 756L636 756L660 756L684 756L708 756L732 756L756 756" stroke="#3a7cc3" stroke-width="4"></path><path d="M750 756 a6 6 0 1 0 12 0 a6 6 0 1 0 -12 0zM534 756 a6 6 0 1 0 12 0 a6 6 0 1 0 -12 0zM438 756 a6 6 0 1 0 12 0 a6 6 0 1 0 -12 0zM486 756 a6 6 0 1 0 12 0 a6 6 0 1 0 -12 0zM366 756 a6 6 0 1 0 12 0 a6 6 0 1 0 -12 0z" fill="#3a7cc3"></path><path d="M180 420L204 396M12 396L36 420M156 420L180 396M108 396L132 396M-12 396L12 396L36 396L60 396L84 396L108 396L132 420L156 420L180 420L204 420L228 420L252 396L276 396L300 396L324 396L348 396L372 396L396 396L420 396" stroke="rgba(219, 244, 5, 1)" stroke-width="4"></path><path d="M414 396 a6 6 0 1 0 12 0 a6 6 0 1 0 -12 0zM198 396 a6 6 0 1 0 12 0 a6 6 0 1 0 -12 0zM30 420 a6 6 0 1 0 12 0 a6 6 0 1 0 -12 0zM174 396 a6 6 0 1 0 12 0 a6 6 0 1 0 -12 0zM126 396 a6 6 0 1 0 12 0 a6 6 0 1 0 -12 0z" fill="rgba(219, 244, 5, 1)"></path><path d="M1308 828L1332 852L1356 852L1380 852L1404 852L1428 876M924 756L948 780L972 780L996 780L1020 780L1044 804M588 780L612 804L636 804L660 804L684 804M108 732L132 756L156 756L180 756L204 756L228 756M780 756L804 780L828 780L852 804M348 780L372 804L396 804L420 804L444 804M252 756L276 780M876 756L900 780L924 780L948 804L972 804L996 804L1020 804M276 756L300 756M1380 828L1404 828L1428 828M84 732L108 756M756 780L780 780L804 804M1260 828L1284 852L1308 852L1332 876L1356 876M732 780L756 804L780 828M1188 828L1212 804L1236 804M-12 708L12 708L36 732L60 732L84 732L108 732L132 732L156 732L180 732L204 732L228 732L252 756L276 756L300 780L324 780L348 780L372 780L396 780L420 780L444 780L468 780L492 780L516 780L540 780L564 780L588 780L612 780L636 780L660 780L684 780L708 780L732 780L756 780L780 756L804 756L828 756L852 756L876 756L900 756L924 756L948 756L972 756L996 756L1020 756L1044 780L1068 780L1092 804L1116 804L1140 804L1164 828L1188 828L1212 828L1236 828L1260 828L1284 828L1308 828L1332 828L1356 828L1380 828L1404 804" stroke="rgba(219, 244, 5, 1)" stroke-width="4"></path><path d="M1398 804 a6 6 0 1 0 12 0 a6 6 0 1 0 -12 0zM1422 876 a6 6 0 1 0 12 0 a6 6 0 1 0 -12 0zM1038 804 a6 6 0 1 0 12 0 a6 6 0 1 0 -12 0zM678 804 a6 6 0 1 0 12 0 a6 6 0 1 0 -12 0zM222 756 a6 6 0 1 0 12 0 a6 6 0 1 0 -12 0zM846 804 a6 6 0 1 0 12 0 a6 6 0 1 0 -12 0zM438 804 a6 6 0 1 0 12 0 a6 6 0 1 0 -12 0zM270 780 a6 6 0 1 0 12 0 a6 6 0 1 0 -12 0zM1014 804 a6 6 0 1 0 12 0 a6 6 0 1 0 -12 0zM294 756 a6 6 0 1 0 12 0 a6 6 0 1 0 -12 0zM1422 828 a6 6 0 1 0 12 0 a6 6 0 1 0 -12 0zM102 756 a6 6 0 1 0 12 0 a6 6 0 1 0 -12 0zM798 804 a6 6 0 1 0 12 0 a6 6 0 1 0 -12 0zM1350 876 a6 6 0 1 0 12 0 a6 6 0 1 0 -12 0zM774 828 a6 6 0 1 0 12 0 a6 6 0 1 0 -12 0zM1230 804 a6 6 0 1 0 12 0 a6 6 0 1 0 -12 0z" fill="rgba(219, 244, 5, 1)"></path><path d="M348 372L372 348M588 372L612 348L636 348M324 372L348 348M540 372L564 348L588 348L612 324M468 372L492 348L516 348L540 348L564 324L588 300L612 276L636 276L660 300L684 300L708 300L732 300L756 300L780 300L804 300L828 300L852 276L876 276M1068 372L1092 348L1116 324L1140 324L1164 324L1188 324L1212 324L1236 324L1260 324L1284 324L1308 324L1332 324L1356 324L1380 324L1404 324L1428 324M1164 372L1188 396L1212 396L1236 420L1260 420L1284 444L1308 468L1332 468L1356 468L1380 468M1044 372L1068 348L1092 324L1116 300L1140 300L1164 300L1188 300M780 396L804 420M804 396L828 372L852 348M300 372L324 348M876 348L900 324L924 300L948 300L972 300L996 300L1020 300L1044 300L1068 300L1092 300L1116 276L1140 276L1164 276L1188 276L1212 276M708 372L732 396L756 420M612 372L636 396L660 420L684 420L708 420L732 420M-12 372L12 372L36 372L60 372L84 372L108 372L132 372L156 372L180 372L204 372L228 372L252 372L276 372L300 372L324 372L348 372L372 372L396 372L420 372L444 372L468 372L492 372L516 372L540 372L564 372L588 372L612 372L636 372L660 372L684 372L708 372L732 372L756 396L780 396L804 396L828 396L852 372L876 348L900 348L924 348L948 372L972 372L996 372L1020 372L1044 372L1068 372L1092 372L1116 372L1140 372L1164 372L1188 372L1212 372L1236 396L1260 396L1284 420L1308 420" stroke="rgba(219, 244, 5, 1)" stroke-width="4"></path><path d="M1302 420 a6 6 0 1 0 12 0 a6 6 0 1 0 -12 0zM366 348 a6 6 0 1 0 12 0 a6 6 0 1 0 -12 0zM630 348 a6 6 0 1 0 12 0 a6 6 0 1 0 -12 0zM342 348 a6 6 0 1 0 12 0 a6 6 0 1 0 -12 0zM606 324 a6 6 0 1 0 12 0 a6 6 0 1 0 -12 0zM870 276 a6 6 0 1 0 12 0 a6 6 0 1 0 -12 0zM1422 324 a6 6 0 1 0 12 0 a6 6 0 1 0 -12 0zM1374 468 a6 6 0 1 0 12 0 a6 6 0 1 0 -12 0zM1182 300 a6 6 0 1 0 12 0 a6 6 0 1 0 -12 0zM798 420 a6 6 0 1 0 12 0 a6 6 0 1 0 -12 0zM846 348 a6 6 0 1 0 12 0 a6 6 0 1 0 -12 0zM318 348 a6 6 0 1 0 12 0 a6 6 0 1 0 -12 0zM1206 276 a6 6 0 1 0 12 0 a6 6 0 1 0 -12 0zM750 420 a6 6 0 1 0 12 0 a6 6 0 1 0 -12 0zM726 420 a6 6 0 1 0 12 0 a6 6 0 1 0 -12 0z" fill="rgba(219, 244, 5, 1)"></path><path d="M60 756L84 756M-12 732L12 732L36 756L60 756L84 780L108 780" stroke="#3a7cc3" stroke-width="4"></path><path d="M102 780 a6 6 0 1 0 12 0 a6 6 0 1 0 -12 0zM78 756 a6 6 0 1 0 12 0 a6 6 0 1 0 -12 0z" fill="#3a7cc3"></path><path d="M540 252L564 276L588 276L612 252M372 324L396 324L420 324L444 324L468 324L492 324L516 324L540 324M396 300L420 300L444 300M660 228L684 252L708 252L732 252M564 252L588 252M252 348L276 324M492 276L516 252M636 228L660 252L684 276L708 276L732 276L756 276M-12 348L12 348L36 348L60 348L84 348L108 348L132 348L156 348L180 348L204 348L228 348L252 348L276 348L300 324L324 324L348 324L372 324L396 300L420 276L444 276L468 276L492 276L516 276L540 252L564 252L588 228L612 228L636 228L660 228L684 228L708 228L732 228" stroke="rgba(35, 225, 21, 1)" stroke-width="4"></path><path d="M726 228 a6 6 0 1 0 12 0 a6 6 0 1 0 -12 0zM606 252 a6 6 0 1 0 12 0 a6 6 0 1 0 -12 0zM534 324 a6 6 0 1 0 12 0 a6 6 0 1 0 -12 0zM438 300 a6 6 0 1 0 12 0 a6 6 0 1 0 -12 0zM726 252 a6 6 0 1 0 12 0 a6 6 0 1 0 -12 0zM582 252 a6 6 0 1 0 12 0 a6 6 0 1 0 -12 0zM270 324 a6 6 0 1 0 12 0 a6 6 0 1 0 -12 0zM510 252 a6 6 0 1 0 12 0 a6 6 0 1 0 -12 0zM750 276 a6 6 0 1 0 12 0 a6 6 0 1 0 -12 0z" fill="rgba(35, 225, 21, 1)"></path><path d="M636 828L660 852L684 852M540 804L564 828L588 852L612 852M156 804L180 780L204 780M468 804L492 828M444 828L468 828M516 804L540 828L564 852M228 804L252 780M-12 756L12 756L36 780L60 780L84 804L108 804L132 804L156 804L180 804L204 804L228 804L252 804L276 804L300 804L324 804L348 828L372 828L396 828L420 828L444 828L468 804L492 804L516 804L540 804L564 804L588 828L612 828L636 828L660 828L684 828L708 828" stroke="#dd1133" stroke-width="4"></path><path d="M702 828 a6 6 0 1 0 12 0 a6 6 0 1 0 -12 0zM678 852 a6 6 0 1 0 12 0 a6 6 0 1 0 -12 0zM606 852 a6 6 0 1 0 12 0 a6 6 0 1 0 -12 0zM198 780 a6 6 0 1 0 12 0 a6 6 0 1 0 -12 0zM486 828 a6 6 0 1 0 12 0 a6 6 0 1 0 -12 0zM462 828 a6 6 0 1 0 12 0 a6 6 0 1 0 -12 0zM558 852 a6 6 0 1 0 12 0 a6 6 0 1 0 -12 0zM246 780 a6 6 0 1 0 12 0 a6 6 0 1 0 -12 0z" fill="#dd1133"></path><path d="M468 228L492 252M684 204L708 204L732 204L756 204L780 228L804 228L828 228L852 228L876 228M660 204L684 180M636 204L660 180M444 228L468 252M228 324L252 324M-12 324L12 324L36 324L60 324L84 324L108 324L132 324L156 324L180 324L204 324L228 324L252 300L276 300L300 300L324 300L348 300L372 300L396 276L420 252L444 228L468 228L492 228L516 228L540 228L564 228L588 204L612 204L636 204L660 204L684 204L708 180L732 180" stroke="rgba(35, 225, 21, 1)" stroke-width="4"></path><path d="M726 180 a6 6 0 1 0 12 0 a6 6 0 1 0 -12 0zM486 252 a6 6 0 1 0 12 0 a6 6 0 1 0 -12 0zM870 228 a6 6 0 1 0 12 0 a6 6 0 1 0 -12 0zM678 180 a6 6 0 1 0 12 0 a6 6 0 1 0 -12 0zM654 180 a6 6 0 1 0 12 0 a6 6 0 1 0 -12 0zM462 252 a6 6 0 1 0 12 0 a6 6 0 1 0 -12 0zM246 324 a6 6 0 1 0 12 0 a6 6 0 1 0 -12 0z" fill="rgba(35, 225, 21, 1)"></path><path d="M876 828L900 804L924 804M1044 828L1068 852L1092 852L1116 852L1140 852L1164 876M924 828L948 852L972 852L996 852L1020 852L1044 852L1068 876L1092 876L1116 876L1140 900L1164 900M612 876L636 900L660 900L684 900L708 900L732 900L756 900M852 828L876 852L900 852L924 852L948 876L972 876L996 876L1020 876L1044 876L1068 900L1092 900L1116 900L1140 924M564 876L588 900L612 900L636 924M540 876L564 900L588 924L612 924L636 948L660 948L684 948L708 948L732 948L756 948L780 948L804 948L828 948L852 972L876 972L900 972M804 828L828 852L852 852L876 876L900 876M444 876L468 876L492 876L516 852L540 852M780 852L804 852L828 876L852 876L876 900L900 900L924 876M732 876L756 852M708 876L732 852L756 828M492 900L516 900L540 900M-12 780L12 780L36 804L60 804L84 828L108 828L132 828L156 828L180 828L204 828L228 828L252 828L276 828L300 828L324 828L348 852L372 852L396 852L420 852L444 876L468 900L492 900L516 876L540 876L564 876L588 876L612 876L636 876L660 876L684 876L708 876L732 876L756 876L780 852L804 828L828 828L852 828L876 828L900 828L924 828L948 828L972 828L996 828L1020 828L1044 828L1068 828L1092 828L1116 828L1140 828L1164 852L1188 852L1212 852L1236 852" stroke="#3a7cc3" stroke-width="4"></path><path d="M1230 852 a6 6 0 1 0 12 0 a6 6 0 1 0 -12 0zM918 804 a6 6 0 1 0 12 0 a6 6 0 1 0 -12 0zM1158 876 a6 6 0 1 0 12 0 a6 6 0 1 0 -12 0zM1158 900 a6 6 0 1 0 12 0 a6 6 0 1 0 -12 0zM750 900 a6 6 0 1 0 12 0 a6 6 0 1 0 -12 0zM1134 924 a6 6 0 1 0 12 0 a6 6 0 1 0 -12 0zM630 924 a6 6 0 1 0 12 0 a6 6 0 1 0 -12 0zM894 972 a6 6 0 1 0 12 0 a6 6 0 1 0 -12 0zM894 876 a6 6 0 1 0 12 0 a6 6 0 1 0 -12 0zM534 852 a6 6 0 1 0 12 0 a6 6 0 1 0 -12 0zM918 876 a6 6 0 1 0 12 0 a6 6 0 1 0 -12 0zM750 852 a6 6 0 1 0 12 0 a6 6 0 1 0 -12 0zM750 828 a6 6 0 1 0 12 0 a6 6 0 1 0 -12 0zM534 900 a6 6 0 1 0 12 0 a6 6 0 1 0 -12 0z" fill="#3a7cc3"></path><path d="M132 300L156 276M612 180L636 180M756 156L780 180L804 180L828 180L852 180L876 180L900 180M108 300L132 276M84 300L108 276M-12 300L12 300L36 300L60 300L84 300L108 300L132 300L156 300L180 300L204 300L228 300L252 276L276 276L300 276L324 276L348 276L372 276L396 252L420 228L444 204L468 204L492 204L516 204L540 204L564 204L588 180L612 180L636 156L660 156L684 156L708 156L732 156L756 156L780 156L804 156L828 156L852 156" stroke="rgba(35, 225, 21, 1)" stroke-width="4"></path><path d="M846 156 a6 6 0 1 0 12 0 a6 6 0 1 0 -12 0zM150 276 a6 6 0 1 0 12 0 a6 6 0 1 0 -12 0zM630 180 a6 6 0 1 0 12 0 a6 6 0 1 0 -12 0zM894 180 a6 6 0 1 0 12 0 a6 6 0 1 0 -12 0zM126 276 a6 6 0 1 0 12 0 a6 6 0 1 0 -12 0zM102 276 a6 6 0 1 0 12 0 a6 6 0 1 0 -12 0z" fill="rgba(35, 225, 21, 1)"></path><path d="M588 948L612 948M252 852L276 876L300 876L324 876L348 900M612 972L636 996L660 996L684 996L708 1020M180 852L204 876M492 924L516 948L540 948L564 972L588 972L612 996L636 1020M108 852L132 876L156 876L180 900M36 828L60 852L84 876L108 876L132 900M-12 804L12 804L36 828L60 828L84 852L108 852L132 852L156 852L180 852L204 852L228 852L252 852L276 852L300 852L324 852L348 876L372 876L396 876L420 876L444 900L468 924L492 924L516 924L540 924L564 948L588 948L612 972L636 972L660 972L684 972L708 972" stroke="#3a7cc3" stroke-width="4"></path><path d="M702 972 a6 6 0 1 0 12 0 a6 6 0 1 0 -12 0zM606 948 a6 6 0 1 0 12 0 a6 6 0 1 0 -12 0zM342 900 a6 6 0 1 0 12 0 a6 6 0 1 0 -12 0zM702 1020 a6 6 0 1 0 12 0 a6 6 0 1 0 -12 0zM198 876 a6 6 0 1 0 12 0 a6 6 0 1 0 -12 0zM630 1020 a6 6 0 1 0 12 0 a6 6 0 1 0 -12 0zM174 900 a6 6 0 1 0 12 0 a6 6 0 1 0 -12 0zM126 900 a6 6 0 1 0 12 0 a6 6 0 1 0 -12 0z" fill="#3a7cc3"></path><path d="M756 132L780 108L804 108L828 108L852 108L876 108L900 108L924 132L948 132L972 132M132 252L156 228L180 228L204 228L228 228L252 228L276 228L300 228L324 228M180 276L204 252L228 252M684 132L708 108L732 108L756 108L780 84L804 84L828 84L852 84L876 60M84 252L108 228L132 204L156 204L180 204M660 132L684 108L708 84L732 84M636 132L660 108L684 84L708 60L732 60L756 60L780 60L804 60L828 60L852 60M12 276L36 252L60 252L84 228L108 204L132 180L156 180L180 180L204 180L228 180M348 252L372 228L396 204L420 180L444 156L468 132L492 132L516 132M-12 276L12 276L36 276L60 276L84 252L108 252L132 252L156 252L180 276L204 276L228 276L252 252L276 252L300 252L324 252L348 252L372 252L396 228L420 204L444 180L468 180L492 180L516 180L540 180L564 180L588 156L612 156L636 132L660 132L684 132L708 132L732 132L756 132L780 132L804 132L828 132" stroke="#3a7cc3" stroke-width="4"></path><path d="M822 132 a6 6 0 1 0 12 0 a6 6 0 1 0 -12 0zM966 132 a6 6 0 1 0 12 0 a6 6 0 1 0 -12 0zM318 228 a6 6 0 1 0 12 0 a6 6 0 1 0 -12 0zM222 252 a6 6 0 1 0 12 0 a6 6 0 1 0 -12 0zM870 60 a6 6 0 1 0 12 0 a6 6 0 1 0 -12 0zM174 204 a6 6 0 1 0 12 0 a6 6 0 1 0 -12 0zM726 84 a6 6 0 1 0 12 0 a6 6 0 1 0 -12 0zM846 60 a6 6 0 1 0 12 0 a6 6 0 1 0 -12 0zM222 180 a6 6 0 1 0 12 0 a6 6 0 1 0 -12 0zM510 132 a6 6 0 1 0 12 0 a6 6 0 1 0 -12 0z" fill="#3a7cc3"></path></g></g><defs><mask id="SvgjsMask1000"><rect width="1920" height="1080" fill="#ffffff"></rect></mask><mask id="SvgjsMask1001"><rect width="1920" height="1080" fill="white"></rect><path d="M9 540 a3 3 0 1 0 6 0 a3 3 0 1 0 -6 0z" fill="black"></path><path d="M753 516 a3 3 0 1 0 6 0 a3 3 0 1 0 -6 0zM681 516 a3 3 0 1 0 6 0 a3 3 0 1 0 -6 0zM417 492 a3 3 0 1 0 6 0 a3 3 0 1 0 -6 0zM489 564 a3 3 0 1 0 6 0 a3 3 0 1 0 -6 0zM753 588 a3 3 0 1 0 6 0 a3 3 0 1 0 -6 0zM657 564 a3 3 0 1 0 6 0 a3 3 0 1 0 -6 0zM201 540 a3 3 0 1 0 6 0 a3 3 0 1 0 -6 0zM81 516 a3 3 0 1 0 6 0 a3 3 0 1 0 -6 0zM441 588 a3 3 0 1 0 6 0 a3 3 0 1 0 -6 0z" fill="black"></path><path d="M9 516 a3 3 0 1 0 6 0 a3 3 0 1 0 -6 0z" fill="black"></path><path d="M777 684 a3 3 0 1 0 6 0 a3 3 0 1 0 -6 0zM177 588 a3 3 0 1 0 6 0 a3 3 0 1 0 -6 0zM369 660 a3 3 0 1 0 6 0 a3 3 0 1 0 -6 0zM201 612 a3 3 0 1 0 6 0 a3 3 0 1 0 -6 0zM177 612 a3 3 0 1 0 6 0 a3 3 0 1 0 -6 0zM81 588 a3 3 0 1 0 6 0 a3 3 0 1 0 -6 0zM489 636 a3 3 0 1 0 6 0 a3 3 0 1 0 -6 0zM369 612 a3 3 0 1 0 6 0 a3 3 0 1 0 -6 0zM849 636 a3 3 0 1 0 6 0 a3 3 0 1 0 -6 0z" fill="black"></path><path d="M1089 516 a3 3 0 1 0 6 0 a3 3 0 1 0 -6 0zM1113 492 a3 3 0 1 0 6 0 a3 3 0 1 0 -6 0zM201 492 a3 3 0 1 0 6 0 a3 3 0 1 0 -6 0zM1065 540 a3 3 0 1 0 6 0 a3 3 0 1 0 -6 0zM921 420 a3 3 0 1 0 6 0 a3 3 0 1 0 -6 0zM393 444 a3 3 0 1 0 6 0 a3 3 0 1 0 -6 0zM537 492 a3 3 0 1 0 6 0 a3 3 0 1 0 -6 0zM993 540 a3 3 0 1 0 6 0 a3 3 0 1 0 -6 0zM513 492 a3 3 0 1 0 6 0 a3 3 0 1 0 -6 0zM1137 564 a3 3 0 1 0 6 0 a3 3 0 1 0 -6 0zM489 492 a3 3 0 1 0 6 0 a3 3 0 1 0 -6 0zM873 540 a3 3 0 1 0 6 0 a3 3 0 1 0 -6 0z" fill="black"></path><path d="M9 612 a3 3 0 1 0 6 0 a3 3 0 1 0 -6 0z" fill="black"></path><path d="M465 420 a3 3 0 1 0 6 0 a3 3 0 1 0 -6 0zM153 444 a3 3 0 1 0 6 0 a3 3 0 1 0 -6 0zM441 444 a3 3 0 1 0 6 0 a3 3 0 1 0 -6 0zM105 420 a3 3 0 1 0 6 0 a3 3 0 1 0 -6 0z" fill="black"></path><path d="M921 660 a3 3 0 1 0 6 0 a3 3 0 1 0 -6 0zM321 660 a3 3 0 1 0 6 0 a3 3 0 1 0 -6 0zM273 660 a3 3 0 1 0 6 0 a3 3 0 1 0 -6 0zM681 708 a3 3 0 1 0 6 0 a3 3 0 1 0 -6 0zM825 684 a3 3 0 1 0 6 0 a3 3 0 1 0 -6 0zM729 708 a3 3 0 1 0 6 0 a3 3 0 1 0 -6 0zM585 684 a3 3 0 1 0 6 0 a3 3 0 1 0 -6 0zM1209 684 a3 3 0 1 0 6 0 a3 3 0 1 0 -6 0zM849 708 a3 3 0 1 0 6 0 a3 3 0 1 0 -6 0z" fill="black"></path><path d="M1305 780 a3 3 0 1 0 6 0 a3 3 0 1 0 -6 0zM1425 756 a3 3 0 1 0 6 0 a3 3 0 1 0 -6 0zM1425 708 a3 3 0 1 0 6 0 a3 3 0 1 0 -6 0zM153 684 a3 3 0 1 0 6 0 a3 3 0 1 0 -6 0zM1305 684 a3 3 0 1 0 6 0 a3 3 0 1 0 -6 0zM105 684 a3 3 0 1 0 6 0 a3 3 0 1 0 -6 0zM57 660 a3 3 0 1 0 6 0 a3 3 0 1 0 -6 0zM1377 804 a3 3 0 1 0 6 0 a3 3 0 1 0 -6 0zM81 684 a3 3 0 1 0 6 0 a3 3 0 1 0 -6 0zM1089 756 a3 3 0 1 0 6 0 a3 3 0 1 0 -6 0zM1257 804 a3 3 0 1 0 6 0 a3 3 0 1 0 -6 0zM33 660 a3 3 0 1 0 6 0 a3 3 0 1 0 -6 0z" fill="black"></path><path d="M753 756 a3 3 0 1 0 6 0 a3 3 0 1 0 -6 0zM537 756 a3 3 0 1 0 6 0 a3 3 0 1 0 -6 0zM441 756 a3 3 0 1 0 6 0 a3 3 0 1 0 -6 0zM489 756 a3 3 0 1 0 6 0 a3 3 0 1 0 -6 0zM369 756 a3 3 0 1 0 6 0 a3 3 0 1 0 -6 0z" fill="black"></path><path d="M417 396 a3 3 0 1 0 6 0 a3 3 0 1 0 -6 0zM201 396 a3 3 0 1 0 6 0 a3 3 0 1 0 -6 0zM33 420 a3 3 0 1 0 6 0 a3 3 0 1 0 -6 0zM177 396 a3 3 0 1 0 6 0 a3 3 0 1 0 -6 0zM129 396 a3 3 0 1 0 6 0 a3 3 0 1 0 -6 0z" fill="black"></path><path d="M1401 804 a3 3 0 1 0 6 0 a3 3 0 1 0 -6 0zM1425 876 a3 3 0 1 0 6 0 a3 3 0 1 0 -6 0zM1041 804 a3 3 0 1 0 6 0 a3 3 0 1 0 -6 0zM681 804 a3 3 0 1 0 6 0 a3 3 0 1 0 -6 0zM225 756 a3 3 0 1 0 6 0 a3 3 0 1 0 -6 0zM849 804 a3 3 0 1 0 6 0 a3 3 0 1 0 -6 0zM441 804 a3 3 0 1 0 6 0 a3 3 0 1 0 -6 0zM273 780 a3 3 0 1 0 6 0 a3 3 0 1 0 -6 0zM1017 804 a3 3 0 1 0 6 0 a3 3 0 1 0 -6 0zM297 756 a3 3 0 1 0 6 0 a3 3 0 1 0 -6 0zM1425 828 a3 3 0 1 0 6 0 a3 3 0 1 0 -6 0zM105 756 a3 3 0 1 0 6 0 a3 3 0 1 0 -6 0zM801 804 a3 3 0 1 0 6 0 a3 3 0 1 0 -6 0zM1353 876 a3 3 0 1 0 6 0 a3 3 0 1 0 -6 0zM777 828 a3 3 0 1 0 6 0 a3 3 0 1 0 -6 0zM1233 804 a3 3 0 1 0 6 0 a3 3 0 1 0 -6 0z" fill="black"></path><path d="M1305 420 a3 3 0 1 0 6 0 a3 3 0 1 0 -6 0zM369 348 a3 3 0 1 0 6 0 a3 3 0 1 0 -6 0zM633 348 a3 3 0 1 0 6 0 a3 3 0 1 0 -6 0zM345 348 a3 3 0 1 0 6 0 a3 3 0 1 0 -6 0zM609 324 a3 3 0 1 0 6 0 a3 3 0 1 0 -6 0zM873 276 a3 3 0 1 0 6 0 a3 3 0 1 0 -6 0zM1425 324 a3 3 0 1 0 6 0 a3 3 0 1 0 -6 0zM1377 468 a3 3 0 1 0 6 0 a3 3 0 1 0 -6 0zM1185 300 a3 3 0 1 0 6 0 a3 3 0 1 0 -6 0zM801 420 a3 3 0 1 0 6 0 a3 3 0 1 0 -6 0zM849 348 a3 3 0 1 0 6 0 a3 3 0 1 0 -6 0zM321 348 a3 3 0 1 0 6 0 a3 3 0 1 0 -6 0zM1209 276 a3 3 0 1 0 6 0 a3 3 0 1 0 -6 0zM753 420 a3 3 0 1 0 6 0 a3 3 0 1 0 -6 0zM729 420 a3 3 0 1 0 6 0 a3 3 0 1 0 -6 0z" fill="black"></path><path d="M105 780 a3 3 0 1 0 6 0 a3 3 0 1 0 -6 0zM81 756 a3 3 0 1 0 6 0 a3 3 0 1 0 -6 0z" fill="black"></path><path d="M729 228 a3 3 0 1 0 6 0 a3 3 0 1 0 -6 0zM609 252 a3 3 0 1 0 6 0 a3 3 0 1 0 -6 0zM537 324 a3 3 0 1 0 6 0 a3 3 0 1 0 -6 0zM441 300 a3 3 0 1 0 6 0 a3 3 0 1 0 -6 0zM729 252 a3 3 0 1 0 6 0 a3 3 0 1 0 -6 0zM585 252 a3 3 0 1 0 6 0 a3 3 0 1 0 -6 0zM273 324 a3 3 0 1 0 6 0 a3 3 0 1 0 -6 0zM513 252 a3 3 0 1 0 6 0 a3 3 0 1 0 -6 0zM753 276 a3 3 0 1 0 6 0 a3 3 0 1 0 -6 0z" fill="black"></path><path d="M705 828 a3 3 0 1 0 6 0 a3 3 0 1 0 -6 0zM681 852 a3 3 0 1 0 6 0 a3 3 0 1 0 -6 0zM609 852 a3 3 0 1 0 6 0 a3 3 0 1 0 -6 0zM201 780 a3 3 0 1 0 6 0 a3 3 0 1 0 -6 0zM489 828 a3 3 0 1 0 6 0 a3 3 0 1 0 -6 0zM465 828 a3 3 0 1 0 6 0 a3 3 0 1 0 -6 0zM561 852 a3 3 0 1 0 6 0 a3 3 0 1 0 -6 0zM249 780 a3 3 0 1 0 6 0 a3 3 0 1 0 -6 0z" fill="black"></path><path d="M729 180 a3 3 0 1 0 6 0 a3 3 0 1 0 -6 0zM489 252 a3 3 0 1 0 6 0 a3 3 0 1 0 -6 0zM873 228 a3 3 0 1 0 6 0 a3 3 0 1 0 -6 0zM681 180 a3 3 0 1 0 6 0 a3 3 0 1 0 -6 0zM657 180 a3 3 0 1 0 6 0 a3 3 0 1 0 -6 0zM465 252 a3 3 0 1 0 6 0 a3 3 0 1 0 -6 0zM249 324 a3 3 0 1 0 6 0 a3 3 0 1 0 -6 0z" fill="black"></path><path d="M1233 852 a3 3 0 1 0 6 0 a3 3 0 1 0 -6 0zM921 804 a3 3 0 1 0 6 0 a3 3 0 1 0 -6 0zM1161 876 a3 3 0 1 0 6 0 a3 3 0 1 0 -6 0zM1161 900 a3 3 0 1 0 6 0 a3 3 0 1 0 -6 0zM753 900 a3 3 0 1 0 6 0 a3 3 0 1 0 -6 0zM1137 924 a3 3 0 1 0 6 0 a3 3 0 1 0 -6 0zM633 924 a3 3 0 1 0 6 0 a3 3 0 1 0 -6 0zM897 972 a3 3 0 1 0 6 0 a3 3 0 1 0 -6 0zM897 876 a3 3 0 1 0 6 0 a3 3 0 1 0 -6 0zM537 852 a3 3 0 1 0 6 0 a3 3 0 1 0 -6 0zM921 876 a3 3 0 1 0 6 0 a3 3 0 1 0 -6 0zM753 852 a3 3 0 1 0 6 0 a3 3 0 1 0 -6 0zM753 828 a3 3 0 1 0 6 0 a3 3 0 1 0 -6 0zM537 900 a3 3 0 1 0 6 0 a3 3 0 1 0 -6 0z" fill="black"></path><path d="M849 156 a3 3 0 1 0 6 0 a3 3 0 1 0 -6 0zM153 276 a3 3 0 1 0 6 0 a3 3 0 1 0 -6 0zM633 180 a3 3 0 1 0 6 0 a3 3 0 1 0 -6 0zM897 180 a3 3 0 1 0 6 0 a3 3 0 1 0 -6 0zM129 276 a3 3 0 1 0 6 0 a3 3 0 1 0 -6 0zM105 276 a3 3 0 1 0 6 0 a3 3 0 1 0 -6 0z" fill="black"></path><path d="M705 972 a3 3 0 1 0 6 0 a3 3 0 1 0 -6 0zM609 948 a3 3 0 1 0 6 0 a3 3 0 1 0 -6 0zM345 900 a3 3 0 1 0 6 0 a3 3 0 1 0 -6 0zM705 1020 a3 3 0 1 0 6 0 a3 3 0 1 0 -6 0zM201 876 a3 3 0 1 0 6 0 a3 3 0 1 0 -6 0zM633 1020 a3 3 0 1 0 6 0 a3 3 0 1 0 -6 0zM177 900 a3 3 0 1 0 6 0 a3 3 0 1 0 -6 0zM129 900 a3 3 0 1 0 6 0 a3 3 0 1 0 -6 0z" fill="black"></path><path d="M825 132 a3 3 0 1 0 6 0 a3 3 0 1 0 -6 0zM969 132 a3 3 0 1 0 6 0 a3 3 0 1 0 -6 0zM321 228 a3 3 0 1 0 6 0 a3 3 0 1 0 -6 0zM225 252 a3 3 0 1 0 6 0 a3 3 0 1 0 -6 0zM873 60 a3 3 0 1 0 6 0 a3 3 0 1 0 -6 0zM177 204 a3 3 0 1 0 6 0 a3 3 0 1 0 -6 0zM729 84 a3 3 0 1 0 6 0 a3 3 0 1 0 -6 0zM849 60 a3 3 0 1 0 6 0 a3 3 0 1 0 -6 0zM225 180 a3 3 0 1 0 6 0 a3 3 0 1 0 -6 0zM513 132 a3 3 0 1 0 6 0 a3 3 0 1 0 -6 0z" fill="black"></path></mask></defs></svg>