<svg xmlns="http://www.w3.org/2000/svg" version="1.1" xmlns:xlink="http://www.w3.org/1999/xlink" xmlns:svgjs="http://svgjs.com/svgjs" width="1920" height="1080" preserveAspectRatio="none" viewBox="0 0 1920 1080"><g mask="url(&quot;#SvgjsMask1024&quot;)" fill="none"><rect width="1920" height="1080" x="0" y="0" fill="#0e2a47"></rect><circle r="9.1" cx="1454.6699999999998" cy="254.56" filter="url(#SvgjsFilter1025)" fill="rgba(51, 121, 194, 0.58)"></circle><circle r="13.29" cx="1926.25" cy="583.8199999999999" filter="url(#SvgjsFilter1025)" fill="rgba(51, 121, 194, 0.58)"></circle><circle r="17.955" cx="559.6850000000001" cy="700.495" filter="url(#SvgjsFilter1025)" fill="rgba(51, 121, 194, 0.58)"></circle><circle r="15.835" cx="959.515" cy="928.135" filter="url(#SvgjsFilter1025)" fill="rgba(51, 121, 194, 0.58)"></circle><circle r="10.75" cx="805.53" cy="601.42" filter="url(#SvgjsFilter1025)" fill="rgba(51, 121, 194, 0.58)"></circle><circle r="13.82" cx="584.72" cy="794.9200000000001" filter="url(#SvgjsFilter1025)" fill="rgba(51, 121, 194, 0.58)"></circle><circle r="10.33" cx="256.63" cy="1002.99" filter="url(#SvgjsFilter1025)" fill="rgba(51, 121, 194, 0.58)"></circle><circle r="13.14" cx="1611.63" cy="206.75" filter="url(#SvgjsFilter1025)" fill="rgba(51, 121, 194, 0.58)"></circle><circle r="16.085" cx="497.565" cy="745.4250000000001" filter="url(#SvgjsFilter1025)" fill="rgba(51, 121, 194, 0.58)"></circle><circle r="13.555" cx="223.155" cy="215.705" filter="url(#SvgjsFilter1025)" fill="rgba(51, 121, 194, 0.58)"></circle><circle r="9.63" cx="485.45" cy="56.81" filter="url(#SvgjsFilter1025)" fill="rgba(51, 121, 194, 0.58)"></circle><circle r="15.825" cx="660.225" cy="600.9050000000001" filter="url(#SvgjsFilter1025)" fill="rgba(51, 121, 194, 0.58)"></circle><circle r="17.99" cx="220.82000000000002" cy="557.57" filter="url(#SvgjsFilter1025)" fill="rgba(51, 121, 194, 0.58)"></circle><circle r="16.2" cx="592.7" cy="214.17" filter="url(#SvgjsFilter1025)" fill="rgba(51, 121, 194, 0.58)"></circle><circle r="9.335" cx="979.145" cy="922.505" filter="url(#SvgjsFilter1025)" fill="rgba(51, 121, 194, 0.58)"></circle><circle r="9.685" cx="1339.205" cy="844.405" filter="url(#SvgjsFilter1025)" fill="rgba(51, 121, 194, 0.58)"></circle><circle r="9.325" cx="1726.9750000000001" cy="1081.135" filter="url(#SvgjsFilter1025)" fill="rgba(51, 121, 194, 0.58)"></circle><circle r="14" cx="1771.15" cy="353.46" filter="url(#SvgjsFilter1025)" fill="rgba(51, 121, 194, 0.58)"></circle><circle r="15.025" cx="518.825" cy="402.025" filter="url(#SvgjsFilter1025)" fill="rgba(51, 121, 194, 0.58)"></circle><circle r="14.445" cx="1223.705" cy="261.575" filter="url(#SvgjsFilter1025)" fill="rgba(51, 121, 194, 0.58)"></circle><path d="M1717.5 692.3L1730.5 715.7 1712.5 716.1C1710.6 716 1708.6 717.8 1708 720.4 1708.6 722.7 1710.4 724.8 1712.3 724.9L1736 724.9 1748 746.7 1699.9 746.3C1696.8 746.4 1694.8 748.2 1695.4 750.6 1694.8 753.2 1696.6 755.2 1699.7 755L1752.8 755.4 1764.2 774.9 1738 819.8 1718.1 820.1 1690.7 770.5C1689.9 770.1 1689.2 769.7 1688.5 769.2 1687.7 768.8 1685.8 768.7 1684.6 769 1681.9 770.3 1681.3 773 1683.1 775L1708.1 820.2 1683.7 819.8 1670.2 797.1C1670.7 796.4 1669.9 796 1669.2 795.5 1667.7 794.7 1665.8 794.6 1664.2 795.6 1662.6 796.6 1662.1 799.3 1662.7 801.6L1673.7 819.9 1643.1 819.9C1641.2 819.8 1639.2 821.5 1638.7 824.2 1639.3 826.5 1641.1 828.5 1643 828.7L1671.7 828.6 1662.6 844.1C1661.3 846.3 1662.7 849 1664.2 849.9 1666.4 851.2 1669.5 851 1670.7 848.8L1682.3 828.9 1706.8 829.3 1682.7 870.6C1681.4 872.8 1682.1 875.1 1684.3 876.4 1686.5 877.7 1688.8 877.1 1690.1 874.9L1716.7 829.2 1737.8 828.6 1763.6 874.2 1753.7 891.2 1699.4 891.2C1696.7 890.6 1694.3 893.1 1694.9 895.5 1694.4 898.1 1696.6 899.4 1699.2 899.9L1748.5 900 1736.1 921.4 1711.6 921C1709.7 920.9 1707.3 923.4 1707.1 925.3S1709.5 929.7 1712.2 930.2L1730.9 930.3 1715.9 956.1C1714.6 958.3 1715.9 961.1 1718.2 962.3 1719.6 963.2 1722.7 963 1724 960.8L1739 935 1749 951.7C1750.1 953.3 1752.3 954.6 1755.1 953.2 1756.7 952.2 1757.6 948.8 1756.6 947.2L1744.2 926.2 1756.6 904.8 1781 947.6C1782.8 949.7 1785 950.9 1787.8 949.6 1789.4 948.6 1790.4 945.2 1789.3 943.6L1761.8 895.9 1771.7 879 1824.1 878.9 1834 897.5 1807.3 943.2C1806 945.4 1806.7 947.7 1808.9 949 1811.1 950.3 1814.2 950.1 1815.4 947.9L1839.5 906.6 1851.9 927.7 1840.3 947.6C1839 949.8 1839.6 952.2 1841.9 953.4 1844.1 954.7 1846.4 954.1 1847.7 951.9L1856.7 936.4 1870.8 961.4C1871.8 963 1875.2 964 1876.8 962.9 1878.8 961.2 1880.1 959 1878.3 956.9L1864 930.8 1884.6 930.9C1886.9 930.3 1889 928.5 1889.1 926.6 1889.2 924.7 1888.2 923.1 1886.7 922.3 1886.7 922.3 1885.9 921.8 1884.8 922.2L1858.4 921.6 1846 900.6 1897.7 900C1900.3 900.6 1902.3 898.8 1902.1 895.7 1901.8 894.6 1901.5 893.4 1900.1 892.5 1899.3 892.1 1898.6 891.7 1897.8 891.3L1841.2 891.8 1831.6 874.4 1857.8 829.4 1880.4 829.7 1906.9 875.8C1908.2 878.5 1910.9 879.1 1912.9 877.3 1915.2 876.7 1915.8 874 1914.4 871.3L1890.3 829.6 1915.2 829.3 1926.9 849.9C1927.9 851.5 1930.6 852 1932.9 851.4 1934.9 849.7 1936.2 847.4 1934.4 845.4L1925.9 829.6 1952.7 829.4C1955.3 829.9 1956.6 827.7 1957.2 825.1 1956.8 823.9 1955.8 822.3 1954.3 821.4 1954.3 821.4 1953.6 821 1952.8 820.6L1924.2 820.7 1934.9 802.2C1935.8 800.8 1935.6 797.7 1933.4 796.4 1931.2 795.1 1928.4 796.5 1927.5 797.9L1914.2 820.8 1889.3 821.1 1915.5 776.1C1916.8 773.9 1915.5 771.2 1913.3 769.9S1908.7 769.2 1907.4 771.4L1878.6 820.8 1858 820.6 1832.3 775 1843.4 755.8 1898.5 756.3C1900.8 755.7 1902.8 753.9 1903.4 751.3 1903.1 750.1 1902 748.5 1900.5 747.6 1899.8 747.2 1899.1 746.8 1897.9 747.1L1848.6 747 1861 725.6 1885.9 725.3C1887.8 725.4 1889.8 723.6 1890.4 721 1889.8 718.7 1888 716.6 1886.1 716.5L1866.2 716.8 1879.9 693.2C1880.8 691.7 1879.9 688.2 1878.4 687.3 1876.2 686 1872.7 687 1871.8 688.4L1858.1 712 1849.2 695C1848.5 694.6 1847.8 694.2 1847 693.7 1845.5 692.9 1843.6 692.8 1842.5 693.1 1840.4 694.8 1839.9 697.5 1840.5 699.8L1852.9 720.9 1840.5 742.3 1816.1 699.4C1814.7 696.6 1812.1 696.1 1810.5 697.1 1807.7 698.5 1807.2 701.1 1807.8 703.5L1835.3 751.1 1824.1 770.3 1771.7 770.4 1761.4 752.5 1790.2 703.1C1791.5 700.9 1790.9 698.6 1788.7 697.3 1786.5 696 1784.1 696.6 1782.8 698.8L1756.6 743.8 1744.6 722 1758 699.1C1758.8 697.6 1757.9 694.1 1755.7 692.9 1753.5 691.6 1750.7 692.9 1749.8 694.4L1739.1 712.8 1725 687.8C1724.3 687.4 1724.3 687.4 1723.6 687 1722.1 686.1 1720.2 686 1719 686.3 1717 688.1 1716.4 690.7 1717.5 692.3ZM1819 779.1L1824.7 779.5 1827.1 783.9 1848.1 820.8 1850.5 825.1 1847.9 829.5 1826.8 865.7 1824.3 870.1 1819.3 870.2 1776.8 870.1 1771.9 870.2 1768.7 865.4 1748.5 828.9 1745.4 824.1 1747.9 819.7 1769 783.6 1771.6 779.2 1777.3 779.5 1819 779.1Z" fill="rgba(51, 121, 194, 0.58)"></path><path d="M699.8 1167.8L687.9 1140.4 705.9 1141.7C707.8 1142 710 1140.4 710.8 1137.8 710.4 1135.4 708.8 1133.3 706.4 1133.7L684 1131.2 673.8 1110.3 720.5 1115.4C722.9 1115 725.1 1113.5 725.4 1111.6 725.5 1108.5 723.9 1106.3 721.5 1106.7L669.8 1101.2 655.3 1068.7 695.3 1077.4 674.2 1042.3 709.6 1045.7 731.5 1092.8C731 1093.5 731.7 1094 732.4 1094.5 733.7 1095.5 735.6 1095.8 737.3 1094.9 739 1094 739.8 1091.5 739.4 1089.1L719.5 1046.5 742.6 1049.4 752.1 1069.8C752.3 1071 753 1071.5 753.7 1072 754.4 1072.5 756.3 1072.8 758 1071.9 759.7 1071.1 760.5 1068.5 759.6 1066.8L752.6 1050.2 782.3 1052.6C784.9 1053.4 786.4 1051.4 787.2 1048.8 787.5 1046.9 785.9 1044.7 782.8 1044.6L753.6 1041.5 764 1026.9C765.5 1024.8 764.4 1022 763 1021 760.9 1019.5 758.6 1019.9 757.1 1021.9L743.6 1040.7 720.5 1037.8 747.4 1000.3C748.9 998.2 748.5 995.8 746.4 994.3 745 993.4 741.9 993.3 740.4 995.3L710.6 1036.9 675.2 1033.6 702 1003.5 661.8 1004 682.6 974.9 733.6 979.9C736.7 980 738.2 978 738.5 976.1 738.8 974.2 737.2 972 734.6 971.2L688.1 967.3 701.5 948.5 724.4 950.3C727 951.1 729.2 949.5 729.3 946.4 729.6 944.5 728 942.3 725 942.2L707.5 940.2 724.9 915.9C726.4 913.9 726 911.5 723.9 910S719.5 908.9 718 911L700.6 935.3 693.1 919.4C692 916.5 689.4 915.7 687.7 916.6 684.8 917.7 684 920.2 685.6 922.4L694.6 943.6 681.2 962.3 662.5 919.5C660.9 917.3 658.3 916.5 656.7 917.4 653.8 918.5 653 921.1 654.6 923.3L675.7 969.9 654.8 999.1 642.4 960.8 622.5 995.8 608 963.4 637.8 921.8C639.3 919.7 638.2 916.8 636.8 915.8 634.7 914.3 632.4 914.7 630.9 916.8L603.5 954.9 593.8 933.3 607.3 914.6C608.7 912.5 608.4 910.1 606.3 908.6 604.9 907.6 601.8 907.5 600.3 909.6L589.9 924.2 577.5 897.5C576.4 894.6 573.9 893.8 571.7 895.4 570 896.3 568.5 898.3 570.1 900.5L581.9 927.9 564 926.6C562.1 926.3 559.9 927.9 559.6 929.8 559.3 931.7 560.2 933.3 560.9 933.8 561.6 934.3 562.3 934.8 563.5 934.6L585.9 937.1 596.1 958 549.4 952.9C547 953.3 544.8 954.8 544.5 956.7 544.2 958.6 545.1 960.3 546.5 961.3 547.2 961.8 547.2 961.8 548.4 961.6L600 967.1 614.6 999.6 574.6 990.9 595.7 1025.9 560.3 1022.6 538.4 975.5C537.5 973.8 535.4 972.3 532.6 973.4 530.9 974.3 530.1 976.8 530.5 979.2L550.3 1021.8 527.2 1018.9 517.7 998.4C517.3 996.1 514.8 995.3 511.9 996.4 510.2 997.2 509.4 999.8 509.8 1002.2L517.3 1018.1 487.6 1015.7C485 1014.9 483.5 1016.9 482.7 1019.5 482.9 1020.7 483.8 1022.4 484.5 1022.9 485.2 1023.4 485.9 1023.9 487 1023.7L516.3 1026.8 505.9 1041.4C504.4 1043.5 505.5 1046.3 506.9 1047.3L506.9 1047.3C508.9 1048.8 511.3 1048.4 512.8 1046.3L526.2 1027.6 549.3 1030.5 522.5 1068C521 1070.1 521.4 1072.5 523.5 1073.9S527.9 1075 529.4 1073L559.3 1031.3 594.7 1034.7 567.8 1064.8 608.1 1064.3 587.2 1093.4 536.2 1088.3C533.2 1088.2 531.7 1090.3 531.4 1092.2 531.1 1094.1 532.7 1096.3 535.2 1097.1L581.3 1101.7 568.3 1119.7 545.4 1118C542.8 1117.2 540.7 1118.8 540.6 1121.9 540.3 1123.8 541.8 1126 544.4 1126.8L562.4 1128.1 545 1152.3C543.5 1154.4 543.9 1156.8 546 1158.3S550.4 1159.4 551.9 1157.3L569.3 1133 576.8 1148.9C577 1150.1 577.7 1150.6 578.4 1151.1 579.8 1152.1 581 1151.9 582.2 1151.7 585.1 1150.6 585.8 1148 584.3 1145.9L575.3 1124.7 588.7 1106 607.4 1148.8C608.1 1149.3 608.8 1149.8 609.5 1150.3 610.8 1151.3 612 1151.1 613.2 1150.9 616.1 1149.8 616.9 1147.2 615.3 1145L594.2 1098.4 615 1069.2 627.5 1107.5 647.4 1072.5 661.9 1104.9 632.1 1146.5C630.6 1148.6 631.7 1151.5 633.1 1152.5 635.1 1154 637.5 1153.6 639 1151.5L665.9 1114.1 676 1135 662.6 1153.7C661.1 1155.8 661.5 1158.2 663.6 1159.7S668.1 1160.8 669.6 1158.7L680 1144.1 692.4 1170.8C692.5 1172 693.2 1172.5 693.9 1173 694.6 1173.5 696.5 1173.8 698.2 1172.9 699.9 1172 701.4 1170 699.8 1167.8ZM629.6 1087L619.5 1055.6 586.6 1056.2 608.8 1031.1 591.9 1003.3 624.2 1009.6 640.3 981.3 650.3 1012.6 683.3 1012.1 661.6 1036.5 677.9 1065 646.2 1058 629.6 1087Z" fill="rgba(51, 121, 194, 0.58)"></path><path d="M1270.9 184.2L1250.4 205.8 1244.5 188.8C1244.1 186.9 1241.8 185.6 1239.1 185.8 1237.1 187.1 1235.7 189.4 1237 191.5L1243.5 213 1228.2 230.6 1214.7 185.6C1213.4 183.6 1211 182.2 1209.2 182.7 1206.3 183.8 1204.9 186.1 1206.2 188.1L1221.4 237.8 1197.2 263.9 1189.5 223.7 1165.5 256.9 1154.7 223 1189.6 184.4C1190.4 184.6 1190.6 183.8 1190.8 182.9 1191.1 181.3 1190.7 179.4 1189.2 178.2 1187.7 177 1185 177.3 1183 178.6L1151.6 213.5 1145.2 191.1 1160.3 174.4C1161.3 173.7 1161.5 172.9 1161.7 172.1 1161.9 171.2 1161.4 169.4 1160 168.2 1158.5 167 1155.8 167.3 1154.6 168.7L1142.1 181.7 1132.7 153.4C1132.4 150.7 1129.9 150.1 1127.2 150.4 1125.4 150.9 1124 153.2 1125.1 156L1133.7 184.2 1116.2 180.3C1113.7 179.7 1111.5 181.9 1111.1 183.5 1110.5 186 1111.8 188.1 1114.3 188.6L1136.8 193.6 1143.2 216 1098.2 206C1095.7 205.4 1093.7 206.7 1093.1 209.2 1092.7 210.9 1093.8 213.8 1096.3 214.3L1146.3 225.5 1157.1 259.4 1118.9 246.5 1135.2 283.3 1100.2 275.5 1084.9 226.6C1083.8 223.8 1081.3 223.2 1079.4 223.7 1077.5 224.1 1076.2 226.4 1076.4 229.1L1091 273.5 1068.5 268.5 1061.1 246.7C1060.9 244 1058.6 242.6 1055.7 243.7 1053.8 244.2 1052.4 246.5 1053.6 249.4L1058.5 266.2 1029.4 259.7C1026.9 259.2 1024.9 260.5 1024.3 263S1025 267.5 1027.5 268.1L1056.7 274.6 1045 287.7C1042.8 289.8 1043.1 292.5 1044.5 293.7 1046.7 295.9 1049.4 295.7 1050.7 293.3L1066.7 276.8 1089.2 281.8 1057.1 315.7C1055.7 318.1 1056 320.7 1057.5 321.9 1059.6 324.2 1062.3 323.9 1063.7 321.6L1098.3 283.8 1133.3 291.6 1102.9 318.1 1143 322.7 1118.8 348.7 1068.9 337.6C1066.4 337 1064.1 339.2 1063.8 340.8 1063.2 343.3 1064.5 345.4 1067 345.9L1112.8 356.1 1096.7 373.5 1074.2 368.5C1071.7 368 1069.7 369.2 1069.1 371.7 1068.7 373.4 1069.8 376.3 1072.3 376.8L1089.8 380.7 1070.1 402.6C1067.9 404.7 1068.2 407.4 1070.5 408.8 1072 410 1074.5 410.5 1075.8 408.2L1096.4 386.6 1102.2 403.6C1102.7 405.5 1105 406.9 1106.9 406.4 1108.7 405.9 1109.9 404.4 1110.1 403.6 1110.3 402.8 1110.5 402 1109.8 400.9L1103.3 379.4 1118.5 361.8 1132.1 406.8C1133.4 408.8 1135.7 410.2 1137.6 409.7 1139.4 409.3 1140.6 407.8 1141 406.1 1141.2 405.3 1141.2 405.3 1140.5 404.3L1125.4 354.6 1149.6 328.5 1157.2 368.7 1181.2 335.5 1192 369.4 1157.2 408C1156 409.5 1155.4 412 1157.6 414.2 1159 415.4 1161.7 415.1 1163.8 413.8L1195.2 378.9 1201.5 401.3 1186.4 418C1184.4 419.3 1184.7 422 1186.8 424.2 1188.3 425.4 1191 425.1 1193 423.9L1204.7 410.7 1214.1 439C1214.4 441.7 1216.9 442.3 1219.6 442 1220.6 441.4 1221.8 439.9 1222 439.1 1222.2 438.2 1222.3 437.4 1221.7 436.4L1213.1 408.2 1230.6 412.1C1233.1 412.7 1235.3 410.6 1235.7 408.9L1235.7 408.9C1236.2 406.4 1235 404.4 1232.5 403.8L1210 398.8 1203.6 376.4 1248.6 386.4C1251.1 387 1253.1 385.7 1253.7 383.2S1252.9 378.6 1250.4 378.1L1200.5 366.9 1189.6 333.1 1227.9 345.9 1211.6 309.1 1246.6 316.9 1261.9 365.8C1263 368.6 1265.5 369.2 1267.4 368.7 1269.2 368.3 1270.6 366 1270.3 363.3L1256.6 319.1 1278.2 324 1285.6 345.7C1285.9 348.4 1288.2 349.8 1291.1 348.7 1292.9 348.2 1294.3 345.9 1294 343.2L1288.2 326.2 1317.4 332.7C1319.9 333.2 1321.9 331.9 1322.5 329.4S1321.7 324.9 1319.2 324.4L1290.1 317.9 1301.8 304.7C1302.8 304.1 1303 303.2 1303.1 302.4 1303.5 300.7 1302.9 299.7 1302.2 298.7 1300.1 296.5 1297.4 296.8 1296 299.1L1280.1 315.6 1257.6 310.6 1289.7 276.7C1289.8 275.8 1290 275 1290.2 274.2 1290.6 272.5 1289.9 271.5 1289.3 270.5 1287.2 268.2 1284.5 268.5 1283.1 270.8L1248.4 308.6 1213.5 300.8 1243.8 274.3 1203.8 269.8 1227.9 243.7 1277.9 254.8C1280.4 255.4 1282.6 253.2 1283 251.6 1283.6 249.1 1282.3 247 1279.8 246.5L1234.8 236.5 1250.1 218.9 1272.6 223.9C1275.1 224.5 1277.1 223.2 1277.7 220.7S1276.9 216.1 1274.4 215.6L1256.9 211.7 1276.7 189.8C1277.7 189.2 1277.9 188.4 1278.1 187.5 1278.2 186.7 1277.8 184.8 1276.3 183.6 1274.8 182.4 1272.3 181.9 1270.9 184.2ZM1224.1 280.4L1199.2 302 1212.6 332.1 1180.9 321.5 1161.9 347.8 1155 315.7 1122.7 312 1147.6 290.4 1134.2 260.4 1165.1 270.7 1184.9 244.6 1190.9 276.5 1224.1 280.4Z" fill="rgba(51, 121, 194, 0.58)"></path><path d="M1534.4 504.1L1503.2 535.3 1491 535.6 1477.3 512.1 1483.3 501.2 1526.1 489.8C1526.6 489.6 1526.6 489.6 1527 489.3 1527.9 488.8 1528.6 487.8 1528.3 486.1 1527.5 484.7 1526.5 484.1 1524.8 484.4L1487.4 494.5 1496.9 477.9 1513.3 473.2C1513.3 473.2 1513.8 472.9 1513.8 472.9 1514.7 472.4 1515.4 471.4 1515 469.8 1514.9 468.6 1513.2 467.7 1511.6 468.1L1500.7 470.7 1507.9 458.5C1508.5 457.5 1508.2 455.9 1506.9 454.7S1503.8 454.7 1502.7 456L1496 467.9 1493 457.3C1492.6 455.7 1490.9 454.8 1489.2 455.2 1488.3 455.7 1487.2 457 1487.5 458.6L1492.2 475 1482.3 491.9 1472.2 454.6C1471.9 452.9 1470.2 452.1 1469 452.2 1467.6 453 1466.5 454.2 1466.8 455.9L1478.6 498.4 1472.2 509.5 1445.6 509.6 1439.2 498.5 1450.1 455.7C1450.5 454.3 1449.7 452.9 1448.2 452.5S1445.4 452.9 1445 454.4L1435.4 492.1 1425.5 475 1429.7 459C1430.1 457.5 1429.3 456.1 1427.6 455.3S1424.7 455.7 1424.4 457.2L1421.7 468.6 1414.5 456.1C1413.7 454.7 1411.8 454.6 1410.4 455.4 1409 456.2 1408.6 457.7 1409.4 459.1L1416.7 471.5 1405.7 468.6C1404 467.8 1402.6 468.6 1402.5 470.5 1402.1 472 1402.9 473.3 1404.4 473.7L1420.4 478 1430.4 495 1392.9 484.7C1391.4 484.3 1389.6 485.4 1389.2 486.9S1389.6 489.7 1391.1 490.1L1434.1 501.5 1440.6 512.5 1427 535.9 1414.6 535.7 1383.4 504.5C1382.1 503.3 1380.5 503.7 1379.1 504.5 1378 505.8 1378.3 507.4 1379.1 508.8L1406.7 536 1387.6 536 1375.6 523.8C1374.3 522.7 1372.6 523.1 1371.3 523.9 1370.6 524.9 1370.5 526.8 1371.8 527.9L1379.4 535.8 1365.3 536C1364.1 536 1363 537.3 1362.6 538.8 1363 540.4 1364.3 541.5 1365.4 541.5L1379.5 541.3 1371.5 549.7C1370.8 550.7 1370.7 552.6 1371.7 553.2 1372.5 554.6 1373.7 554.6 1375.1 553.7 1375.1 553.7 1375.5 553.5 1375.5 553.5L1387.7 541.5 1406.8 541.4 1379.6 569C1378.5 570.3 1378.1 571.7 1379.4 572.8 1380.7 573.9 1381.9 573.9 1382.8 573.3 1383.2 573.1 1383.2 573.1 1383.2 573.1L1414.7 541.2 1427.1 541.3 1440.8 564.8 1434.5 575.3 1391.6 587.4C1390.4 587.4 1389.5 589.2 1389.6 590.3 1389.9 592 1391.7 592.8 1393.3 592.5L1430.7 582.5 1421.2 599.1 1404.8 603.7C1403.1 604.1 1402 605.3 1402.8 606.7 1403.2 608.4 1404.9 609.2 1406.1 609.1L1417.1 605.8 1410 618C1409.6 619.4 1410 621.1 1411.2 622.2 1412 622.4 1413.2 622.3 1414.1 621.8 1414.5 621.5 1414.5 621.5 1414.7 620.8L1421.8 608.6 1425.2 619.6C1425.5 621.3 1427 621.7 1428.2 621.6 1428.6 621.3 1428.6 621.3 1429.1 621 1430 620.5 1430.7 619.5 1430.6 618.3L1426 601.9 1435.4 585.3 1445.4 622.6C1446.2 624 1447.5 625.1 1448.9 624.3 1449.6 624.5 1449.6 624.5 1450.1 624.2 1451 623.7 1451.4 622.2 1451.3 621.1L1439.2 578.1 1445.5 567.7 1472.5 567.4 1478.7 578 1467.3 621C1466.9 622.4 1468 624.3 1469.5 624.7S1472.8 624 1473.2 622.5L1482.7 584.9 1492.4 601.5 1488.4 618C1488 619.4 1488.8 620.8 1490.3 621.2 1491.7 621.6 1493.1 620.8 1493.5 619.3L1496.4 608.4 1503.6 620.8C1504.2 621.7 1505.9 622.6 1507.3 621.8 1508.7 621 1509.2 618.8 1508.7 617.9L1501.5 605.4 1512.4 608.3C1513.1 608.5 1513.9 608.7 1514.3 608.4 1515.2 607.9 1515.4 607.2 1515.6 606.4 1516 605 1515.2 603.6 1513.7 603.2L1497.4 598.5 1487.8 581.9 1525.2 592.2C1526 592.4 1526.4 592.1 1527.3 591.6 1527.8 591.3 1528.3 591 1528.5 590.3 1528.8 588.9 1527.8 587 1526.3 586.6L1483.7 575 1477.6 564.4 1490.7 541.3 1503.3 540.8 1534.7 572.5C1535.7 573.1 1537.2 573.5 1538.1 573 1538.6 572.7 1538.6 572.7 1538.3 572.2 1539.7 571.4 1539.8 569.5 1538.5 568.4L1511 541.2 1530.6 540.9 1542.6 553.1C1543.6 553.7 1544.8 553.7 1545.7 553.1 1545.7 553.1 1546.1 552.9 1546.1 552.9 1547.5 552.1 1547.6 550.1 1546.4 549L1538 541 1552.1 540.8C1552.8 541 1553.3 540.7 1553.7 540.4 1554.6 539.9 1555.3 538.9 1555 538.4 1555.1 536.5 1553.9 535.4 1552.4 535L1538.3 535.2 1546.2 527.5C1547.3 526.3 1547.4 524.3 1546.2 523.2 1545.2 522.6 1543.2 522.5 1542.6 523.5L1530.5 535.5 1511.3 535.5 1538.5 507.9C1539.6 506.7 1539.3 505 1538.5 503.6 1537.5 503 1535.5 502.9 1534.4 504.1ZM1473.9 517.8L1484.3 535.8 1486 538.5 1484.5 541.3 1474.3 558.9 1472.4 561.9 1469.3 561.8 1449 561.9 1445.9 561.9 1444.3 559.1 1433.8 541.2 1432.2 538.4 1433.7 535.7 1443.8 518.1 1445.3 515.3 1448.8 515.1 1469.2 515 1472.3 515 1473.9 517.8Z" fill="rgba(51, 121, 194, 0.58)"></path><path d="M254.8 940.8L212.6 953.6 201.7 948.2 200.6 921 211 914.2 254.1 924.3C254.7 924.2 254.7 924.2 255.2 924.2 256.3 924.2 257.3 923.6 257.8 922 257.7 920.4 257.1 919.3 255.5 918.9L217.8 910.2 234 900 250.6 903.6C250.6 903.6 251.2 903.6 251.2 903.6 252.2 903.5 253.3 902.9 253.8 901.3 254.3 900.2 253.1 898.7 251.5 898.2L240.7 895.4 252.7 888C253.7 887.4 254.2 885.8 253.6 884.3S250.9 882.8 249.3 883.4L237.9 890.7 240.1 880C240.6 878.4 239.5 876.8 237.8 876.3 236.8 876.4 235.2 877 234.7 878.6L231.1 895.3 214.4 905.5 223.1 867.8C223.6 866.2 222.4 864.7 221.3 864.2 219.7 864.2 218.2 864.8 217.7 866.4L208.2 909.5 197.2 916.4 173.8 903.9 173.3 891.1 203 858.5C204 857.4 203.9 855.8 202.8 854.8S200.1 853.8 199.1 854.9L173 883.7 172.2 864 183.5 851.8C184.5 850.7 184.5 849.1 183.3 847.5S180.6 846.6 179.6 847.7L171.9 856.5 171.4 842.1C171.3 840.5 169.7 839.5 168.1 839.6 166.5 839.6 165.4 840.7 165.5 842.3L166.1 856.7 157.8 849.1C156.6 847.5 155 847.6 154 849.2 153 850.3 153.1 851.9 154.2 852.9L166.4 864.2 167.1 883.9 138.9 857.3C137.8 856.2 135.6 856.3 134.6 857.4S133.6 860.1 134.8 861.2L167.4 891.4 167.9 904.2 145 918.4 134.1 912.4 121.2 870.2C120.6 868.7 119 868.2 117.4 868.3 115.8 868.8 115.4 870.5 115.4 872.1L127 909 110.1 900 105.2 883.7C104.6 882.1 103 881.6 101.4 881.7 100.4 882.3 99.4 883.9 100 885.5L103 896 90.5 889.6C89.4 889.1 87.8 889.7 86.8 890.8 86.3 892.4 86.9 894 88 894.5L100.6 900.9 89.5 904.6C88.4 905.2 87.4 906.8 88 907.8 88.1 909.4 89.2 909.9 90.8 909.9 90.8 909.9 91.3 909.8 91.3 909.8L107.7 904.9 124.6 913.9 87.6 925.5C86.1 926.1 85 927.2 85.6 928.7 86.2 930.3 87.3 930.8 88.4 930.8 88.9 930.8 88.9 930.8 88.9 930.8L131.6 917.3 142.5 923.3 143.6 950.5 133.2 956.8 89.6 947.3C88.5 946.8 86.9 947.9 86.4 949 86 950.6 87.1 952.2 88.7 952.6L126.4 961.3 110.3 971.5 93.6 967.9C92 967.5 90.4 968.1 90.4 969.7 90 971.3 91.1 972.8 92.2 973.3L103.5 975.5 91.5 983C90.5 984.1 90 985.7 90.6 987.3 91.2 987.8 92.2 988.3 93.3 988.2 93.8 988.2 93.8 988.2 94.4 987.7L106.3 980.2 104.1 991.5C103.6 993.2 104.8 994.2 105.8 994.7 106.4 994.7 106.4 994.7 106.9 994.6 108 994.6 109 994 109.5 992.9L113.1 976.2 129.3 966 120.6 1003.7C120.7 1005.3 121.3 1006.9 122.9 1006.8 123.4 1007.3 123.4 1007.3 124 1007.3 125 1007.3 126 1006.2 126.5 1005.1L136 961.5 146.5 955.2 170.4 967.6 170.9 979.8 140.7 1012.5C139.7 1013.6 139.8 1015.8 140.9 1016.8S144.1 1017.7 145.1 1016.6L171.2 987.8 172 1007 160.7 1019.7C159.7 1020.8 159.8 1022.4 160.9 1023.5 162 1024.5 163.6 1024.4 164.6 1023.3L172.3 1015 172.9 1029.4C172.9 1030.5 174 1032 175.6 1032 177.2 1031.9 178.8 1030.2 178.7 1029.2L178.2 1014.8 186.5 1022.5C187 1023 187.6 1023.5 188.1 1023.5 189.2 1023.4 189.7 1022.9 190.2 1022.3 191.2 1021.2 191.2 1019.6 190 1018.6L177.8 1006.8 177.1 987.6 205.4 1014.2C205.9 1014.8 206.4 1014.7 207.5 1014.7 208 1014.7 208.6 1014.7 209.1 1014.1 210.1 1013 210 1010.9 208.9 1009.8L176.8 979.6 176.3 967.4 198.7 953.1 210.1 958.6 223 1001.3C223.6 1002.3 224.7 1003.3 225.7 1003.3 226.3 1003.3 226.3 1003.3 226.3 1002.8 227.9 1002.7 228.9 1001 228.3 999.5L216.7 962.6 234.1 971.5 239 987.8C239.6 988.9 240.7 989.4 241.7 989.3 241.7 989.3 242.3 989.3 242.3 989.3 243.9 989.2 244.9 987.6 244.3 986L240.6 975 253.2 981.4C253.7 981.9 254.3 981.9 254.8 981.9 255.9 981.8 256.9 981.3 256.9 980.7 257.9 979.1 257.3 977.5 256.2 976.5L243.6 970 254.2 967C255.8 966.4 256.8 964.7 256.2 963.1 255.6 962.1 254 961.1 252.9 961.7L236.6 966.6 219.7 957.6 256.6 946C258.2 945.5 258.6 943.8 258.6 942.2 258 941.2 256.4 940.2 254.8 940.8ZM194.9 924.5L195.7 945.2 195.8 948.4 193.2 950.1 176 961 172.9 962.7 170.2 961.2 152.2 951.8 149.5 950.3 149.3 947.1 148.5 926.3 148.4 923.1 151 921.4 168.2 910.6 170.8 908.9 174.1 910.3 192 919.8 194.8 921.3 194.9 924.5Z" fill="rgba(51, 121, 194, 0.58)"></path><path d="M427.3 538.5L497.8 544.8 537.9 593.5 475.7 604 418.4 562.5C418.4 562.5 417.6 562.2 417.6 562.2 416 561.6 413.8 562.6 412.4 563.9 410.7 566 411.4 569 413.8 569.9L464.1 606 433.9 611.1 411.5 595.5C411.5 595.5 410.7 595.2 410.7 595.2 409.1 594.6 406.9 595.6 405.5 596.9 403.8 599 404.5 602 406.9 602.9L421.9 613.9 399.6 617.5C397.7 617.7 395.8 620.6 396 622.5 395.9 625.2 399.1 626.3 401 626.1L423.2 622.6 412.2 637.6C410.5 639.7 411.2 642.7 413.6 643.6 415.7 645.3 418.7 644.6 419.5 642.2L435.2 619.8 465.1 615.5 429 665.8C427.3 667.9 428 670.9 430.4 671.8 432.5 673.4 435.5 672.7 436.4 670.3L477.8 613 540.1 602.5 517.6 662.5 452.9 692C450.7 693 449.8 695.4 450.8 697.6 451.8 699.8 454.2 700.7 456.4 699.7L513.5 673.7 502.7 702.4 478.6 713.4C476.4 714.4 475.5 716.8 476.5 719 477.5 721.2 479.9 722.1 482.1 721.1L498.5 713.6 490.2 736C488.5 738.1 490.3 740.6 492.7 741.5 495.1 742.4 497.3 741.4 498.2 739L505.9 718.2 513.4 734.7C514.4 736.9 516.8 737.8 519 736.8S522.1 733.4 521.1 731.2L510.1 707 520.9 678.2 546.9 735.3C547.9 737.5 550.3 738.4 552.5 737.4 554.7 736.4 555.6 734 554.6 731.8L525 667.1 547.1 607.9 587.3 656.6 580.7 725.2C580.6 727.9 582.7 729.6 585.1 730.5 587.8 730.6 589.5 728.5 590.4 726.1L596.2 664.5 615.6 688.1 612.7 715.3C612.6 718 614.7 719.7 617.1 720.6 619.8 720.7 621.5 718.6 622.1 717L623.6 698.4 638.1 715.7C639.4 717.1 642.6 718.3 644.3 716.2 645.9 714.1 646.8 711.7 644.7 710L630.2 692.7 648.8 694.2C651.5 694.3 653.2 692.2 653.8 690.6 653.6 688.7 652.6 686.5 651 685.9 651 685.9 650.2 685.6 650.2 685.6L623 682.7 603.6 659.1 665.3 664.8C668 664.9 669.7 662.8 670.3 661.2 670.1 659.3 669.1 657.1 667.5 656.5 667.5 656.5 666.7 656.2 666.7 656.2L596.1 649.9 556 601.2 618.2 590.7 675.6 632.2C677.7 633.9 680.7 633.2 681.6 630.8 683.3 628.7 682.6 625.7 680.2 624.8L629.9 588.7 660.1 583.6 682.5 599.3C684.6 600.9 687.6 600.2 688.5 597.8 690.2 595.7 689.5 592.8 687.1 591.9L672.1 580.8 694.3 577.3C696.2 577.1 698.2 574.2 698 572.3 697.8 570.4 696.5 569 694.9 568.4 694.1 568.1 693.3 567.8 692.2 568.3L670 571.8 681 556.8C682.7 554.7 682 551.7 679.6 550.8 679.6 550.8 678.8 550.5 678.8 550.5 677.2 549.9 675 550.9 673.6 552.2L658 574.6 627.8 579.7 663.9 529.5C665.6 527.4 664.9 524.4 662.5 523.5 662.5 523.5 661.7 523.2 661.7 523.2 660.1 522.6 657.9 523.6 656.5 524.9L615 582.3 552.8 592.7 574.9 533.6 639.7 504C641.9 503 642.8 500.6 641.8 498.4 640.8 496.2 638.4 495.3 636.2 496.3L579.4 521.6 590.2 492.8 614.3 481.8C616.5 480.8 617.4 478.4 616.4 476.2S613 473.1 610.8 474.1L594.3 481.6 602.1 460.8C603 458.4 602 456.2 599.6 455.3 597.2 454.4 595 455.4 594.1 457.8L586.4 478.6 578.8 462.1C578.3 461 577.8 459.9 576.2 459.4S573.5 459.3 572.4 459.8C570.3 460.8 569.4 463.2 570.4 465.4L581.4 489.5 570.6 518.3 544.6 461.2C544.1 460.1 543.6 459 542 458.4 541.2 458.1 539.3 458.3 538.2 458.8 536 459.8 535.1 462.2 536.1 464.4L565.6 529.2 543.5 588.3 503.4 539.6 509.7 469.1C509.5 467.2 508.5 465 506.9 464.4 506.9 464.4 506.1 464.1 506.1 464.1 503.4 464 501.7 466.1 501.1 467.7L495.4 529.4 476 505.7 478.9 478.5C478.7 476.6 477.7 474.4 476.1 473.8 476.1 473.8 475.3 473.6 475.3 473.6 472.6 473.5 470.9 475.6 470.3 477.2L468.8 495.7 454.3 478.5C453.5 478.2 453 477.1 452.2 476.8 450.6 476.2 448.7 476.4 447.3 477.7 445.6 479.8 444.7 482.2 446.8 483.9L461.3 501.1 442.8 499.7C440.1 499.6 438.4 501.7 437.8 503.3 437.7 506 439.8 507.6 441.4 508.2L468.5 511.1 487.9 534.8 426.3 529C423.6 528.9 421.9 531 421.3 532.6 422.8 535.9 424.6 538.4 427.3 538.5Z" fill="rgba(51, 121, 194, 0.58)"></path><path d="M832.2 489.9L832.9 506.6 822.7 501.8C821.7 501.2 820.1 501.6 819 502.9 818.7 504.4 819.1 506 820.1 506.6L833.4 513.3 833.9 528.8 807.2 515C805.4 514.3 803.8 514.7 803.5 516.2 802.4 517.5 802.8 519.1 804.6 519.9L834.1 535 835 549.1 807.7 566.8 796.5 561.4 795.2 526C794.9 525.5 794.6 525.1 794.3 524.6 794 524.2 793 523.6 792.3 523.4 790.3 523.4 789.3 524.7 789.7 526.4L791 558.6 777.4 551.5 776.3 535.1C776.7 534.8 776.5 534.3 776.2 533.9 775.6 533 774.6 532.4 773.4 532.5 772.2 532.7 771.1 534 770.8 535.5L771.8 548.8 754.8 540.1C753.8 539.5 752.1 540 751.1 541.3 750.8 542.8 751.2 544.4 752.2 545L768.2 553 758.8 559.1C757.5 560 757.5 561.9 758.1 562.8 758.9 564.2 760.7 564.9 762 564L774.1 556.2 787.6 563.3 762.6 579.6C761.2 580.5 760.9 581.9 761.8 583.3 762.7 584.6 764.2 584.9 765.5 584.1L793.2 566.1 805.1 571.7 806.7 604.4 796.4 611.1 766.1 595.8C764.8 594.7 762.7 595.4 762.4 596.9 761.3 598.2 762.2 599.6 763.5 600.6L791 614.5 778 623 764.5 615.9C763.5 615.2 761.4 616 760.8 617S760.9 620.1 762.2 621.2L772.7 626.5 757 636.6C755.7 637.5 755.6 639.4 756.5 640.8 757.1 641.7 758.9 642.4 760.2 641.5L775.9 631.4 776.8 643.5C776.9 644.7 777.8 646 779.7 646.1 780.9 645.9 782.4 644.3 782.2 643.1L781.2 627.9 794.2 619.5 795.8 650.3C796.2 651.9 797 653.2 799 653.3 800.2 653.1 801.7 651.5 801.5 650.3L799.6 616 809.9 609.3 839.1 624 839.4 637.2 811.7 655.2C810.3 656.1 810 657.5 810.9 658.9 811.8 660.2 813.5 661 814.9 660.1L839.9 643.8 840.9 659.1 828.8 666.9C827.5 667.8 827.2 669.3 828 670.6 828.9 672 830.4 672.3 831.7 671.4L841.1 665.3 841.9 683.2C842.1 684.4 843.7 685.9 844.9 685.8 846.5 685.3 847.8 684.5 847.4 682.8L846.8 664.2 858.2 670.1C859.7 670.4 861.3 670 861.9 669 862.5 667.9 862.4 666.8 861.8 665.9 861.8 665.9 861.5 665.4 860.8 665.3L846.3 657.5 845.3 642.3 874.2 656.5C875.5 657.6 877.2 657.2 877.9 655.4 878.1 654.7 878.3 653.9 877.7 653 877.4 652.6 877.1 652.1 876.8 651.7L845 636.1 844.6 623.6 871.9 605.9 884.4 612.4 886.2 645.6C886.2 647.5 887.5 648.6 889.1 648.1 890.6 648.5 891.6 647.1 891.7 645.2L890 615.2 903.9 622 904.6 636.8C904.8 638 906.1 639 907.6 639.3 909.2 638.9 910.5 638.1 910.1 636.4L909.8 625.2 924.8 632.6C926.1 633.7 927.5 632.8 928.5 631.5 928.7 630.7 928.6 629.5 928 628.6 928 628.6 927.7 628.2 927.4 627.8L911.4 619.7 922.5 612.5C923.4 611.9 924.2 610.1 923.3 608.8 922.5 607.4 920.5 607.4 919.6 608L905.8 617 891.8 610.2 919.1 592.4C920.4 591.6 920.5 589.7 919.6 588.3S917.2 586.7 915.9 587.5L885.9 607 874.5 601.1 872.9 568.4 884.6 560.8 915.1 576.6C916.6 576.9 918.3 576.5 919.3 575.1 919.5 574.4 919.3 573.2 918.7 572.3 918.5 571.9 918.2 571.4 917.4 571.3L889.9 557.3 902.9 548.9 916.9 555.7C917.9 556.3 919.5 555.9 920.6 554.6 920.9 553.1 920.5 551.5 919.5 550.9L908.3 545.4 922.6 536.1C923.5 535.5 924 533.3 923.4 532.4 922.5 531.1 920.3 530.6 919.4 531.2L905.1 540.5 904.9 528.5C904.6 528.1 904.4 527.6 904.1 527.2 903.5 526.3 902.5 525.7 901.7 525.5 900.1 525.9 899 527.3 898.7 528.7L899.7 544 886.7 552.4 885.2 521.6C885.2 519.7 883.9 518.6 882.7 518.8 880.8 518.8 879.7 520.1 879.4 521.5L881.4 555.9 869.7 563.4 840.5 548.7 839.8 535.9 869.7 516.4C871.1 515.5 871.4 514.1 870.5 512.7 869.6 511.4 868.2 511.1 866.8 511.9L839.5 529.6 839 514.1 852.9 505.1C853.7 504.5 854.2 502.3 853.3 501 852.5 499.6 850.6 499.6 849.7 500.2L838.5 507.4 837.7 489.5C837.4 489.1 837.4 489.1 837.1 488.6 836.5 487.7 835.5 487.1 834.7 487 833.1 487.4 832 488.7 832.2 489.9ZM864.4 566.9L867.5 568.7 867.6 571.8 868.9 598.3 869 601.4 866.3 603.2 844.4 617.4 841.7 619.2 838.9 617.8 815.2 605.8 812.4 604.5 812 600.9 811 574.9 810.6 571.3 813.3 569.6 835.2 555.3 837.9 553.6 841 555.4 864.4 566.9Z" fill="rgba(51, 121, 194, 0.58)"></path><path d="M722.9 356.8L716 306.2 727.6 291.6 729.9 308.6C729.6 310.5 731.4 311.4 733.3 311.7 734.7 311.2 736.2 309.5 735.7 308.1L733 284.5 744 269.8 750.8 286.9 741.4 308.9C741.4 308.9 741.4 309.5 741.4 309.5 741.2 310.8 742.3 312.2 743.5 313 745.4 313.3 746.7 312.8 747.6 311L754.2 295.1 761 312.1 741.9 359.3C741.9 359.3 741.2 359.8 741.2 359.8 741.1 361.1 742.2 362.5 743.3 363.3 745.2 364.2 747.2 363.2 747.5 361.3L764.5 320.3 773.4 340.8 765.8 359.2C765.8 359.2 765.8 359.2 765.8 359.8 765.6 361.1 766.1 362.4 767.2 363.2 769.1 363.5 771.1 363.1 772 361.3L776.9 349 783.3 364.1C783.7 366 785.6 366.3 786.9 365.8 788.9 365.4 789.8 363.6 788.8 361.5L783 346.6 794.5 352C796.4 352.2 798.4 351.8 798.7 349.9 799.6 348.1 799.1 346.8 797.3 345.9L778.9 338.3 770.6 317.9 812.3 334.9C813.4 335.7 815.5 334.7 816.4 332.9 816.6 331.6 816.2 329.6 814.4 328.8L767.2 309.7 760.4 292.6 776.3 299.2C778.1 300.1 779.5 299 780.4 297.2 781.2 296 780.2 293.9 779 293.1L756.9 284.4 749.5 267.3 767.9 269.7 782.2 288.4C783.3 289.8 785.2 290.1 786.7 289 788 288.5 788.3 286 787.2 284.5L776.8 270.9 795.2 273.3 826 314.1C827.1 315.6 829 315.8 830.4 314.7 831.8 313.6 832.1 311.7 831 310.3L804.1 274.5 825.6 277.3 837.8 293.1C838.9 294.5 840.8 294.8 842.2 293.7 843.6 292.6 843.9 290.7 842.8 289.2L835.1 278.6 851 280.6C852.9 280.9 854.3 279.8 854.6 277.9 854.8 276 853.7 274.5 851.8 274.3L836 272.2 846 264.5C847.5 263.4 847.7 261.5 846.6 260S843.6 258.4 842.2 259.5L827.1 271 804.9 268.1 840.1 241.1C841.5 240 841.7 238.1 840.6 236.7 839.5 235.2 837.6 235 836.2 236.1L796 267 777.6 264.6 791.2 254.1C792.7 253 792.9 251.1 791.8 249.6 790.7 248.2 788.8 247.9 787.4 249L768.7 263.4 750.9 261.1 761.8 247 785.5 243.6C786.9 243.2 788.4 241.4 787.9 240.1 787.5 238.1 786.3 237.3 784.4 237L767.4 239.3 778.2 225.3 828.8 218.3C830.8 218 831.6 216.8 831.9 214.9 831.5 212.9 829.7 212 828.4 211.8L783.8 217.6 797.7 200.1 816.7 197.4C818.6 197.6 819.5 195.8 819.8 193.9 819.3 192.6 817.6 191 815.6 191.4L803.1 193 812.6 180.1C814 179 813.6 177 811.9 175.4 810.7 174.6 808.7 175 807.9 176.2L797.8 189.1 796.3 176C795.9 174 794.1 173.1 792.8 173.6 790.8 173.3 790 174.5 789.9 175.8 789.8 176.4 789.8 176.4 789.7 177.1L792.4 196.1 778.5 213.7 772.6 169.7C772.9 167.8 771 166.9 769.1 166.6 767.8 167.1 767 168.3 766.8 169.5 766.7 170.2 766.7 170.2 766.7 170.2L772.9 221.3 762.1 235.4 759.8 218.3C759.4 216.3 758.2 215.5 756.3 215.3 754.9 215.8 753.5 216.9 753.3 218.1 753.3 218.8 753.3 218.8 753.2 219.4L756.5 243.1 745.7 257.1 738.8 240.7 747.5 218.6C748.4 216.8 747.3 214.8 746.1 214 744.2 213.7 742.3 214.1 742 216L735.4 231.9 727.9 215.4 747.7 167.7C748.5 166.5 747.5 164.4 746.3 163.6 744.4 163.4 742.4 163.8 741.5 165.6L724.5 206.6 716.2 186.1 723.7 168.4C724.6 166.6 723.6 164.5 721.7 164.3 720.5 163.5 718.5 163.9 717.6 165.7L712.8 177.9 706.4 162.9C705.9 161.6 704.1 160.7 702.1 161.1 701.4 161.6 700.6 162.8 700.4 164.1 700.4 164.1 700.3 164.7 700.2 165.3L706.7 180.4 694.4 175.5C693.2 174.7 691.1 175.8 690.3 176.9 690.2 177.6 690.2 177.6 690.2 177.6 690 179.5 691.1 180.9 692.4 181.1L710.1 188.6 719 209.1 677.4 192C675.5 191.8 674.1 192.2 673.2 194.1 673.2 194.1 673.2 194.7 673.2 194.7 673 196 673.5 197.3 675.3 198.2L722.4 217.9 729.3 234.3 713.4 227.7C711.5 227.5 709.5 227.9 709.2 229.8 708.6 229.7 708.5 230.3 708.5 230.3 708.3 231.6 709.4 233 710.6 233.8L732.7 242.5 739.5 259.6 721.8 257.2 707.4 238.6C706.3 237.1 703.8 236.8 702.3 237.9 701.5 239.1 701.3 241 701.8 242.3L712.9 256.1 694.5 253.7 663.6 213.5C662.5 212 660.6 211.8 659.2 212.9 657.7 214 657.5 215.9 658.6 217.3L685.6 252.5 663.4 249.6 651.8 234.5C650.7 233.1 648.8 232.8 647.4 233.9S645.7 236.9 646.8 238.4L654.5 248.4 638.6 246.3C636.7 246.1 635.3 247.2 635 249.1 634.8 251 635.9 252.4 637.8 252.7L653.7 254.8 643.5 263.1C642.8 263.7 642.1 264.2 642 264.8 641.9 265.5 642.4 266.8 642.9 267.5 644 269 646 269.2 647.4 268.1L662.5 255.9 684.8 258.8 649.5 286.5C648.8 287 648.1 287.6 648 288.2 647.9 288.9 648.4 290.2 648.9 290.9 650 292.4 651.9 292.6 653.4 291.5L693.6 260 712 262.4 697.8 272.8C697 273.4 696.9 274.6 696.8 275.3 696.7 275.9 696.6 276.5 697.2 277.2 698.3 278.7 700.8 279 701.6 277.8L720.9 263.6 738.7 265.9 727.7 280.6 704.1 283.3C702.8 283.8 701.3 284.9 701.2 286.2 701.1 286.8 701.1 286.8 701.7 286.9 701.5 288.8 703.2 290.3 705.2 289.9L722.3 287.6 711.3 302.3 660.2 308.5C658.8 309 658 310.2 657.8 311.5 657.8 312.1 657.8 312.1 657.8 312.1 658.1 314.1 659.2 315.5 661.2 315.1L705.9 309.4 692 326.9 672.9 329.6C670.9 330 670.1 331.1 669.9 332.4 669.9 332.4 669.9 333 669.9 333 670.2 335 672.1 335.9 673.3 336.1L686.5 333.9 676.4 346.8C676.4 347.5 676.3 348.1 676.2 348.7 676.1 349.4 676.6 350.7 677.1 351.4 679 352.3 680.9 352.6 681.7 350.7L691.8 337.9 693.3 351C693.7 353 695.5 353.8 696.8 354 698.8 353.6 699.7 351.8 699.9 349.9L697.3 330.8 710.5 313.2 716.4 357.2C716.8 359.2 718.5 360.7 719.9 360.3 721.9 359.9 723.3 358.8 722.9 356.8Z" fill="rgba(51, 121, 194, 0.58)"></path><path d="M1914.8 414.3L1887.2 392.1 1884 360.7 1912.8 373.6 1925.2 406.8C1925.2 406.8 1925.4 407.1 1925.4 407.1 1925.9 407.8 1927.1 408 1928.1 407.9 1929.3 407.5 1929.9 406 1929.1 405L1918.2 376 1932.2 382.3 1937.2 395C1937.2 395 1937.4 395.3 1937.4 395.3 1937.9 396 1939.1 396.2 1940.1 396.1 1941.3 395.7 1941.9 394.2 1941.1 393.2L1938 384.4 1948.2 389.1C1949.1 389.6 1950.7 388.9 1951.1 388.1 1951.9 387 1950.9 385.6 1950.1 385.2L1939.8 380.4 1948.6 377.3C1949.9 376.9 1950.4 375.4 1949.7 374.4 1949.3 373.1 1947.8 372.6 1946.8 373.3L1934.1 378.3 1920.4 371.8 1949.4 360.9C1950.7 360.5 1951.2 359.1 1950.5 358 1950.1 356.7 1948.6 356.2 1947.6 356.9L1914.4 369.3 1885.7 356.4 1911.6 337.7 1946.7 343.4C1947.9 343.5 1949 342.8 1949.2 341.6 1949.4 340.4 1948.6 339.4 1947.4 339.2L1916.5 334.2 1928.9 325.2 1942 327.3C1943.2 327.5 1944.2 326.7 1944.4 325.6 1944.6 324.4 1943.9 323.3 1942.7 323.1L1933.8 321.7 1943.4 314.7C1944.7 314.3 1944.7 312.8 1943.9 311.7 1943.2 310.7 1942 310.5 1940.9 311.2L1931.9 317.7 1933.4 308.8C1933.6 307.6 1932.8 306.6 1931.6 306.4S1929.4 306.9 1929.2 308.1L1927.1 321.2 1914.6 330.2 1919.7 299.2C1919.8 298 1919.1 297 1917.9 296.8 1916.7 296.6 1915.7 297.4 1915.5 298.6L1909.8 333.7 1884.2 352.2 1881 320.8 1902.8 294.1C1903.6 293 1903.2 291.7 1902.4 290.6 1901.3 289.9 1900 290.3 1899 291L1879.5 315.1 1878 299.8 1886.7 289.3C1887.5 288.2 1887.1 286.9 1886.4 285.9 1885.3 285.1 1884 285.5 1883.3 286L1877.5 293.3 1876.3 282.1C1876.1 281.2 1875.1 279.8 1873.8 280.2 1872.5 280.6 1871.5 281.4 1871.9 282.7L1873.2 293.9 1865.8 288.1C1864.7 287.3 1863.5 287.7 1862.8 288.2 1862.3 289 1862.1 290.2 1862.6 290.9 1862.6 290.9 1862.9 291.3 1862.9 291.3L1873.4 300 1874.9 315.2 1850.8 295.7C1849.8 295 1848.5 295.4 1847.8 295.9 1847.3 296.7 1847.1 297.9 1847.6 298.6 1847.6 298.6 1847.9 298.9 1847.9 298.9L1875.5 321.1 1878.6 352.5 1849.9 339.6 1837.5 306.4C1837.1 305.1 1835.7 304.6 1834.6 305.3 1833.3 305.8 1832.8 307.2 1833.5 308.2L1844.4 337.2 1830.5 331 1825.5 318.2C1825.1 316.9 1823.7 316.4 1822.6 317.2 1821.3 317.6 1820.8 319 1821.5 320L1824.7 328.8 1814.5 324.1C1813.6 323.7 1812 324.3 1811.6 325.1 1811.1 326 1811.3 326.9 1811.8 327.6 1812 328 1812.3 328.3 1812.9 328.4L1823.1 333.1 1814.3 336.3C1813 336.7 1812.5 338.1 1813.3 339.2 1813.3 339.2 1813.5 339.5 1813.5 339.5 1814 340.2 1815.2 340.4 1816.1 340.3L1828.9 335.3 1842.8 341.5 1813.9 352.4C1812.6 352.8 1812 354.3 1812.8 355.3 1812.8 355.3 1813 355.6 1813 355.6 1813.5 356.3 1814.7 356.5 1815.7 356.4L1848.8 344 1877.6 356.9 1852 375.4 1816.9 369.7C1815.7 369.5 1814.6 370.3 1814.5 371.5 1814.3 372.7 1815 373.7 1816.2 373.9L1846.8 379.1 1834.4 388.1 1821.3 386C1820.1 385.8 1819 386.6 1818.8 387.8S1819.4 390 1820.6 390.2L1829.5 391.6 1820.5 398.1C1819.5 398.9 1819.3 400.1 1820 401.1 1820.8 402.1 1822 402.3 1823 401.6L1832 395.1 1830.6 404C1830.5 404.6 1830.4 405.2 1830.9 405.9S1832 406.7 1832.6 406.8C1833.8 407 1834.8 406.2 1835 405L1837.1 391.9 1849.6 382.9 1844.6 413.9C1844.5 414.5 1844.4 415.1 1844.9 415.8 1845.1 416.2 1846 416.6 1846.6 416.7 1847.8 416.9 1848.8 416.1 1849 414.9L1854.7 379.8 1880.3 361.3 1883.4 392.7 1861.3 420.3C1860.8 421.1 1860.6 422.3 1861.1 423 1861.1 423 1861.4 423.4 1861.4 423.4 1862.5 424.2 1863.8 423.8 1864.4 423.3L1883.9 399.2 1885.4 414.4 1876.7 424.9C1876.3 425.8 1876.1 427 1876.6 427.7 1876.6 427.7 1876.8 428 1876.8 428 1877.9 428.8 1879.2 428.4 1879.9 427.9L1885.7 420.6 1886.9 431.8C1887.2 432.1 1887.1 432.7 1887.3 433.1 1887.8 433.8 1888.7 434.2 1889.6 434 1890.9 433.6 1891.9 432.9 1891.5 431.6L1890.3 420.4 1897.6 426.2C1898.7 427 1900 426.6 1900.7 426.1 1901.5 425 1901.1 423.7 1900.6 423L1890 414.3 1888.5 399 1912.6 418.5C1913.7 419.3 1915 418.9 1915.7 418.4 1915.9 416.6 1915.9 415.1 1914.8 414.3Z" fill="rgba(51, 121, 194, 0.58)"></path><path d="M256 155.2L301.5 182.5 312.7 228.5 267.3 215.2 242.1 168.4C242.1 168.4 241.7 167.9 241.7 167.9 240.8 167 239 167 237.6 167.4 235.8 168.3 235.3 170.5 236.6 171.9L258.7 212.7 236.7 206.3 226.7 188.4C226.7 188.4 226.3 187.9 226.3 187.9 225.4 187 223.6 187 222.2 187.4 220.4 188.3 219.9 190.5 221.2 191.9L227.7 204.3 211.5 199.4C210.2 198.9 207.9 200.2 207.4 201.5 206.4 203.3 208.2 205.2 209.5 205.7L225.7 210.6 213.3 217.1C211.5 217.9 211 220.2 212.3 221.6 213.2 223.4 215.4 223.9 216.8 222.6L234.7 212.6 256.3 219.4 215.5 241.6C213.6 242.4 213.1 244.7 214.5 246.1 215.3 247.9 217.6 248.4 219 247.1L265.7 221.9 311.1 235.2 276.4 268.4 223 267.1C221.2 267 219.8 268.4 219.8 270.2 219.7 272 221.1 273.4 222.9 273.4L269.9 274.5 253.2 290.4 233.3 290C231.5 289.9 230.1 291.2 230.1 293.1 230.1 294.9 231.4 296.3 233.2 296.3L246.8 296.6 233.8 309C232 309.8 232.4 312.1 233.7 313.5 235 314.9 236.8 314.9 238.2 313.6L250.3 302.1 249.9 315.7C249.9 317.5 251.2 318.9 253 318.9S256.2 317.7 256.3 315.9L256.7 296 273.4 280.1 272.3 327.1C272.2 328.9 273.6 330.3 275.4 330.3 277.2 330.4 278.6 329.1 278.6 327.3L279.9 273.9 314.2 241.2 325.3 287.2 298.4 331.3C297.5 333.1 298.4 335 299.7 336.4 301.5 337.3 303.3 336.4 304.7 335.1L328.7 295.4 334.1 317.7 323.3 335.1C322.3 336.9 323.2 338.7 324.5 340.1 326.3 341.1 328.1 340.2 329 339.3L336.1 327.3 340.3 343.7C340.7 345 342.4 346.9 344.3 346 346.1 345.2 347.5 343.8 346.6 342L342.5 325.6 354.5 332.7C356.3 333.6 358.2 332.8 359.1 331.9 359.6 330.5 359.6 328.7 358.7 327.8 358.7 327.8 358.3 327.3 358.3 327.3L340.9 316.5 335.5 294.2 375.3 318.2C377 319.2 378.9 318.3 379.8 317.4 380.3 316.1 380.3 314.3 379.5 313.4 379.5 313.4 379 312.9 379 312.9L333.5 285.6 322.4 239.6 367.8 252.9 392.9 299.6C393.8 301.5 396 302 397.4 300.6 399.2 299.8 399.7 297.5 398.4 296.1L376.3 255.3 398.3 261.7 408.3 279.6C409.2 281.5 411.4 282 412.8 280.6 414.7 279.8 415.2 277.5 413.8 276.1L407.3 263.8 423.5 268.7C424.9 269.2 427.2 267.9 427.6 266.5 428.1 265.2 427.7 263.8 426.8 262.9 426.4 262.4 425.9 261.9 425 261.9L408.9 257 421.2 250.5C423.1 249.7 423.6 247.4 422.2 246 422.2 246 421.8 245.5 421.8 245.5 420.9 244.6 419.1 244.6 417.7 245L399.8 255 377.8 248.6 418.6 226.5C420.5 225.6 421 223.3 419.6 222 419.6 222 419.2 221.5 419.2 221.5 418.3 220.6 416.5 220.5 415.1 220.9L368.4 246.1 323 232.8 357.2 200.1 410.6 201.4C412.4 201.4 413.8 200.1 413.9 198.3 413.9 196.5 412.6 195.1 410.8 195L364.2 193.5 380.9 177.6 400.8 178.1C402.6 178.1 404 176.8 404 175S402.7 171.8 400.9 171.7L387.3 171.4 399.4 159.9C400.8 158.6 400.8 156.8 399.5 155.4 398.2 154 396.4 154 395 155.3L382.9 166.8 383.3 153.2C383.3 152.3 383.3 151.4 382.4 150.5S380.6 149.5 379.7 149.5C377.9 149.4 376.5 150.8 376.5 152.6L376 172.5 359.3 188.4 360.4 141.3C360.5 140.4 360.5 139.5 359.6 138.6 359.2 138.1 357.8 137.7 356.9 137.6 355.1 137.6 353.7 138.9 353.7 140.7L352.4 194.1 318.1 226.8 307 180.8 334.3 135.3C334.8 133.9 334.9 132.1 334 131.2 334 131.2 333.5 130.7 333.5 130.7 331.8 129.8 329.9 130.7 329 131.5L305 171.3 299.6 148.9 310.4 131.5C310.9 130.2 311 128.4 310.1 127.5 310.1 127.5 309.6 127 309.6 127 307.8 126.1 306 126.9 305.1 127.8L298 139.9 293.9 123.5C293.4 123 293.5 122.1 293 121.6 292.1 120.7 290.8 120.2 289.4 120.6 287.6 121.5 286.2 122.8 287.1 124.7L291.2 141 279.1 134C277.4 133 275.5 133.9 274.6 134.8 273.6 136.6 274.5 138.4 275.4 139.3L292.8 150.1 298.1 172.4 258.4 148.4C256.6 147.5 254.8 148.3 253.9 149.2 253.8 151.9 254.2 154.2 256 155.2Z" fill="rgba(51, 121, 194, 0.58)"></path></g><defs><mask id="SvgjsMask1024"><rect width="1920" height="1080" fill="#ffffff"></rect></mask><filter id="SvgjsFilter1025"><feGaussianBlur stdDeviation="1"></feGaussianBlur></filter></defs></svg>